<svg width="47" height="47" viewBox="0 0 47 47" fill="none" xmlns="http://www.w3.org/2000/svg">
<path d="M30.0018 18.9757C25.9541 14.9281 20.9585 13.362 18.843 15.4775C18.4022 15.9184 18.13 16.4899 17.998 17.1465L7.58276 37.7212C6.90361 38.4004 7.17574 39.7732 8.19 40.7875C9.20426 41.8017 10.5771 42.0739 11.2563 41.3947L31.831 30.9795C32.4876 30.8475 33.0591 30.5758 33.5 30.1345C35.6154 28.019 34.0494 23.0229 30.0018 18.9757V18.9757Z" fill="#E15B64"/>
<path d="M30.0916 18.8861C25.9495 14.744 20.8364 13.1413 18.6716 15.3061C18.2204 15.7573 17.9417 16.342 17.8068 17.0141C17.294 19.5657 18.9728 23.4475 22.2516 26.7262C25.5303 30.0049 29.4115 31.6837 31.9636 31.171C32.6357 31.0361 33.2204 30.7574 33.6716 30.3062C35.8364 28.1413 34.2337 23.0282 30.0916 18.8861V18.8861Z" fill="#C33737"/>
<path d="M31.5438 14.8464C32.5162 14.8464 33.3044 14.0582 33.3044 13.0858C33.3044 12.1135 32.5162 11.3252 31.5438 11.3252C30.5715 11.3252 29.7832 12.1135 29.7832 13.0858C29.7832 14.0582 30.5715 14.8464 31.5438 14.8464Z" fill="#A0C8D7"/>
<path d="M38.505 11.5427C39.9111 11.5427 41.051 10.4028 41.051 8.99667C41.051 7.59056 39.9111 6.45068 38.505 6.45068C37.0989 6.45068 35.959 7.59056 35.959 8.99667C35.959 10.4028 37.0989 11.5427 38.505 11.5427Z" fill="#ABBD81"/>
<path d="M6.4367 23.8924C7.54352 23.8924 8.44078 22.9952 8.44078 21.8884C8.44078 20.7815 7.54352 19.8843 6.4367 19.8843C5.32987 19.8843 4.43262 20.7815 4.43262 21.8884C4.43262 22.9952 5.32987 23.8924 6.4367 23.8924Z" fill="#F8B26A"/>
<path d="M41.0509 32.6681C41.8885 32.6681 42.5676 31.9891 42.5676 31.1515C42.5676 30.3138 41.8885 29.6348 41.0509 29.6348C40.2132 29.6348 39.5342 30.3138 39.5342 31.1515C39.5342 31.9891 40.2132 32.6681 41.0509 32.6681Z" fill="#A0C8D7"/>
<path d="M23.4996 19.5592C23.3846 19.5593 23.2717 19.5289 23.1723 19.471C23.0729 19.4131 22.9907 19.3299 22.934 19.2299C22.8773 19.1299 22.8482 19.0166 22.8497 18.9016C22.8511 18.7866 22.883 18.6741 22.9422 18.5755C25.9276 13.5916 26.1377 8.9861 23.5851 4.49666C23.5 4.34683 23.4779 4.16932 23.5236 4.00317C23.5693 3.83702 23.6792 3.69585 23.8291 3.61071C23.9789 3.52558 24.1564 3.50345 24.3225 3.54919C24.4887 3.59494 24.6299 3.70481 24.715 3.85464C27.4814 8.71914 27.2601 13.8971 24.0579 19.2434C23.9357 19.4469 23.7205 19.5592 23.4996 19.5592Z" fill="#A0C8D7"/>
<path d="M28.5512 26.7552C28.4412 26.7553 28.333 26.7274 28.2367 26.6742C28.1405 26.621 28.0593 26.5442 28.0008 26.4511C27.9423 26.3579 27.9084 26.2515 27.9024 26.1417C27.8963 26.0318 27.9182 25.9223 27.966 25.8232C30.802 19.9257 36.3654 17.2932 41.8141 19.2729C41.8943 19.302 41.968 19.3468 42.031 19.4044C42.0939 19.4621 42.1449 19.5316 42.181 19.609C42.2171 19.6864 42.2376 19.7701 42.2413 19.8554C42.2451 19.9407 42.232 20.0259 42.2028 20.1062C42.1736 20.1864 42.1289 20.2601 42.0712 20.3231C42.0135 20.386 41.944 20.437 41.8666 20.4731C41.7892 20.5092 41.7055 20.5297 41.6202 20.5334C41.5349 20.5371 41.4497 20.524 41.3695 20.4949C36.5092 18.7277 31.7072 21.04 29.1368 26.3868C29.0839 26.4972 29.0009 26.5905 28.8972 26.6557C28.7936 26.7209 28.6736 26.7554 28.5512 26.7552V26.7552Z" fill="#ABBD81"/>
<path d="M14.3997 17.7282C14.2963 17.7283 14.1945 17.7037 14.1025 17.6565C14.0106 17.6093 13.9313 17.5409 13.8711 17.4568C13.8109 17.3728 13.7717 17.2757 13.7566 17.1734C13.7415 17.0712 13.7511 16.9669 13.7844 16.8691C15.0205 13.2322 14.4772 9.72835 12.1239 6.15776C12.0769 6.08653 12.0445 6.00675 12.0283 5.92297C12.0122 5.83919 12.0127 5.75305 12.0299 5.66948C12.047 5.5859 12.0805 5.50652 12.1283 5.43587C12.1761 5.36521 12.2374 5.30468 12.3086 5.25771C12.3799 5.21074 12.4596 5.17826 12.5434 5.16212C12.6272 5.14598 12.7133 5.1465 12.7969 5.16365C12.8805 5.18081 12.9599 5.21425 13.0305 5.26208C13.1012 5.30991 13.1617 5.37119 13.2087 5.44242C15.7622 9.31569 16.3699 13.3008 15.0149 17.2869C14.9715 17.4156 14.8887 17.5275 14.7784 17.6066C14.668 17.6858 14.5355 17.7284 14.3997 17.7282V17.7282Z" fill="#ABBD81"/>
<path d="M35.7461 42.1643C35.4226 42.1657 35.1013 42.1113 34.7962 42.0036C33.5987 41.5777 32.7311 40.3755 32.145 38.3282C31.7864 36.8284 31.2233 35.9203 30.4643 35.6012C29.6483 35.2586 28.4841 35.5335 27.0065 36.4214C24.6668 37.7646 22.8235 38.0885 21.3608 37.4178C19.9132 36.7532 18.9662 35.1636 18.4661 32.5575C18.4378 32.3899 18.4763 32.218 18.5732 32.0784C18.6702 31.9389 18.8179 31.8429 18.9848 31.8109C19.1517 31.779 19.3245 31.8136 19.4661 31.9075C19.6077 32.0014 19.707 32.1469 19.7426 32.3131C20.1525 34.4464 20.8791 35.7667 21.9032 36.2362C22.9414 36.7132 24.4374 36.3974 26.3485 35.3009C28.2167 34.179 29.7306 33.8838 30.969 34.4032C32.1313 34.892 32.9506 36.1013 33.4032 37.9987C33.8515 39.5633 34.4696 40.508 35.2329 40.7797C35.9134 41.0203 36.8191 40.7519 37.9264 39.9807C37.9965 39.9319 38.0754 39.8974 38.1588 39.8791C38.2421 39.8608 38.3283 39.8591 38.4123 39.8741C38.4963 39.8891 38.5766 39.9206 38.6484 39.9666C38.7203 40.0126 38.7824 40.0723 38.8312 40.1423C38.88 40.2124 38.9145 40.2913 38.9328 40.3747C38.9511 40.458 38.9527 40.5442 38.9377 40.6282C38.9227 40.7122 38.8913 40.7925 38.8453 40.8643C38.7993 40.9362 38.7395 40.9983 38.6695 41.0471C37.6012 41.7902 36.6222 42.1643 35.7461 42.1643V42.1643Z" fill="#F8B26A"/>
<path d="M26.086 43.4753C26.8266 43.4753 27.4269 42.8749 27.4269 42.1344C27.4269 41.3938 26.8266 40.7935 26.086 40.7935C25.3455 40.7935 24.7451 41.3938 24.7451 42.1344C24.7451 42.8749 25.3455 43.4753 26.086 43.4753Z" fill="#ABBD81"/>
<path d="M17.8662 7.10059L18.4077 10.4592L21.6577 11.5426L20.5744 8.07537L17.8662 7.10059Z" fill="#F8B26A"/>
<path d="M38.5047 23.8926L37.584 26.1053L38.5047 27.5764L41.0507 25.7345L38.5047 23.8926Z" fill="#F8B26A"/>
</svg>
