<svg width="47" height="47" viewBox="0 0 47 47" fill="none" xmlns="http://www.w3.org/2000/svg">
<path d="M26.4411 31.516V20.7163H20.5585V31.516C20.5585 34.5804 19.3699 37.5978 17.0514 39.6014C16.1904 40.3454 15.6865 41.2464 15.6865 42.2174H31.3136C31.3136 41.2464 30.8097 40.3459 29.9487 39.6014C27.6297 37.5978 26.4411 34.5804 26.4411 31.516Z" fill="#F47E60"/>
<path d="M23.5002 20.5818H11.9951C7.96623 20.5818 4.7002 17.3162 4.7002 13.2874V12.5965C4.7002 11.8861 4.9824 11.2048 5.48472 10.7025C5.98704 10.2002 6.66834 9.91797 7.37873 9.91797H23.5002" stroke="#F47E60" stroke-width="2.65033" stroke-miterlimit="10"/>
<path d="M23.5 9.91748H39.6215C40.3319 9.91748 41.0132 10.1997 41.5155 10.702C42.0178 11.2043 42.3 11.8856 42.3 12.596V13.2869C42.3 17.3158 39.034 20.5818 35.0051 20.5818H23.5" stroke="#E15B64" stroke-width="2.65033" stroke-miterlimit="10"/>
<path d="M23.5005 28.8477C31.2837 28.8477 37.6884 19.4246 38.486 7.33246C38.5772 5.95207 37.4746 4.78271 36.0914 4.78271H10.9097C9.52648 4.78271 8.42386 5.95207 8.51504 7.33246C9.31263 19.4246 15.7173 28.8477 23.5005 28.8477Z" fill="#F8B26A"/>
<path opacity="0.5" d="M36.0908 4.78271H23.5V42.2173H31.3137C31.3137 41.2463 30.8099 40.3457 29.9489 39.6013C27.6304 37.5976 26.4417 34.5802 26.4417 31.5158V28.3866C32.8459 26.3623 37.7918 17.8609 38.486 7.33294C38.5767 5.95255 37.474 4.78271 36.0908 4.78271V4.78271Z" fill="#E15B64"/>
<path d="M23.5 8.52734L25.6841 12.9533L30.5683 13.663L27.0344 17.1081L27.8686 21.9726L23.5 19.6757L19.1313 21.9726L19.9656 17.1081L16.4316 13.663L21.3159 12.9533L23.5 8.52734Z" fill="#F5E6C8"/>
</svg>
