<svg width="1571" height="1147" viewBox="0 0 1571 1147" fill="none" xmlns="http://www.w3.org/2000/svg">
<g clip-path="url(#clip0)">
<rect width="1571" height="1147" fill="#311D3F"/>
<path d="M1203.1 239.907C1226.19 152.297 1284.43 115.505 1364.65 73.4861C1492.18 6.68112 1733 87.3147 1733 87.3147V1180.73C1733 1180.73 1205.62 1374.83 989.62 1180.73C907.976 1107.37 825.238 1055.52 834.749 946.123C846.631 809.457 1132.42 886.187 1125.43 749.183C1121.86 679.095 1031.66 661.647 1038.7 591.823C1050.15 478.404 1270 610.827 1317.95 507.42C1365.77 404.279 1174.13 349.851 1203.1 239.907Z" fill="#522546"/>
<g clip-path="url(#clip1)">
<path d="M1529.69 308.928L1484.85 306.214L1458.91 304.366V304.32H1458.59H1458.23V304.372L1318.71 315.516H1307.14L1305.78 363.597L1328.24 371.502L1341.85 440.658L1279.92 563.151L1242.5 591.469V618.469L1264.96 640.206L1266.32 739.659L1273.13 740.97V739.914L1276.55 740.57V740.963L1409.46 785.59L1415.05 789.372L1426.73 782.102L1520.88 727.794L1529.69 308.928ZM1386.8 617.879L1423.21 587.071L1386.8 617.879ZM1260.53 630.662L1270.37 640.212V640.802L1260.53 630.662Z" fill="url(#paint0_linear)"/>
<path d="M1278.43 642.225L1411.04 675.655L1391.35 653.368L1380.19 639.603L1263.98 616.66L1258.73 621.249L1278.43 642.225Z" fill="#535461"/>
<path d="M1258.73 621.249L1389.38 651.402L1390.03 619.938L1352.61 605.517L1277.77 593.062H1256.11L1258.73 621.249Z" fill="#D6D6E3"/>
<path d="M1353.27 442.952L1486.54 451.473V426.564L1477.35 370.847L1472.75 366.914L1339.48 370.847L1353.27 442.952Z" fill="#D6D6E3"/>
<path d="M1321.76 317.751H1315.19L1313.88 365.603L1335.54 373.469L1348.67 442.296L1288.93 564.22L1252.82 592.406V619.282L1274.49 640.914L1275.8 739.895L1282.37 741.206L1281.05 642.88L1259.39 619.938L1258.73 592.406L1293.53 564.875L1354.58 442.952L1341.45 373.469L1319.79 364.292L1321.76 317.751Z" fill="#D6D6E3"/>
<path d="M1316.51 317.751H1309.94L1308.63 365.603L1330.29 373.469L1343.42 442.296L1283.68 564.22L1247.57 592.406V619.282L1269.24 640.914L1270.55 739.895L1277.12 741.206L1275.8 642.88L1254.14 619.938L1253.48 592.406L1289.59 564.875L1349.33 442.952L1336.2 373.469L1314.54 364.292L1316.51 317.751Z" fill="#535461"/>
<path d="M1316.18 360.686L1319.46 365.275L1337.84 373.797L1483.59 369.864L1469.47 365.603L1454.37 359.048L1456.34 353.804L1316.18 360.686Z" fill="#A8A8A8"/>
<path d="M1291.56 566.842L1424.83 588.474L1451.75 531.445L1488.51 449.507L1353.27 442.952L1291.56 566.842Z" fill="#522546"/>
<g opacity="0.1">
<path opacity="0.1" d="M1360.49 466.55L1450.43 473.76L1403.82 565.531L1316.5 552.421L1360.49 466.55Z" fill="white"/>
</g>
<path d="M1256.11 593.062L1386.09 619.282L1421.9 588.001L1291.89 565.858L1256.11 593.062Z" fill="#D6D6E3"/>
<path d="M1280.4 638.947V741.206L1409.07 785.78L1411.04 679.588L1405.79 669.71L1382.16 663.856L1280.4 638.947Z" fill="#535461"/>
<path d="M1297.14 578.641C1300.22 578.641 1302.72 577.174 1302.72 575.363C1302.72 573.553 1300.22 572.086 1297.14 572.086C1294.06 572.086 1291.56 573.553 1291.56 575.363C1291.56 577.174 1294.06 578.641 1297.14 578.641Z" fill="#575988"/>
<path d="M1301.73 585.851C1304.82 585.851 1307.31 584.384 1307.31 582.574C1307.31 580.764 1304.82 579.296 1301.73 579.296C1298.65 579.296 1296.15 580.764 1296.15 582.574C1296.15 584.384 1298.65 585.851 1301.73 585.851Z" fill="#FA595F"/>
<path d="M1285.98 583.885C1289.06 583.885 1291.56 582.418 1291.56 580.608C1291.56 578.797 1289.06 577.33 1285.98 577.33C1282.9 577.33 1280.4 578.797 1280.4 580.608C1280.4 582.418 1282.9 583.885 1285.98 583.885Z" fill="#FFD037"/>
<path d="M1356.88 590.44C1359.96 590.44 1362.46 588.972 1362.46 587.162C1362.46 585.352 1359.96 583.885 1356.88 583.885C1353.8 583.885 1351.3 585.352 1351.3 587.162C1351.3 588.972 1353.8 590.44 1356.88 590.44Z" fill="#575988"/>
<path d="M1345.72 596.34C1348.8 596.34 1351.3 594.872 1351.3 593.062C1351.3 591.252 1348.8 589.785 1345.72 589.785C1342.64 589.785 1340.14 591.252 1340.14 593.062C1340.14 594.872 1342.64 596.34 1345.72 596.34Z" fill="#FFD037"/>
<path d="M1324.71 587.162C1329.24 587.162 1332.92 585.402 1332.92 583.229C1332.92 581.057 1329.24 579.296 1324.71 579.296C1320.18 579.296 1316.5 581.057 1316.5 583.229C1316.5 585.402 1320.18 587.162 1324.71 587.162Z" fill="#A8A8A8"/>
<path d="M1362.79 597.651C1365.87 597.651 1368.37 596.183 1368.37 594.373C1368.37 592.563 1365.87 591.096 1362.79 591.096C1359.71 591.096 1357.21 592.563 1357.21 594.373C1357.21 596.183 1359.71 597.651 1362.79 597.651Z" fill="#FA595F"/>
<path d="M1327.01 582.581H1323.07L1319.68 569.523C1319.54 568.974 1319.53 568.399 1319.64 567.843C1319.76 567.288 1320 566.765 1320.34 566.317C1320.69 565.868 1321.14 565.505 1321.65 565.255C1322.16 565.005 1322.72 564.875 1323.29 564.875V564.875C1324.27 564.875 1325.22 565.267 1325.92 565.964C1326.62 566.661 1327.01 567.606 1327.01 568.592V582.581Z" fill="#A8A8A8"/>
<path d="M1383.8 597.651C1388.33 597.651 1392 595.89 1392 593.718C1392 591.546 1388.33 589.785 1383.8 589.785C1379.26 589.785 1375.59 591.546 1375.59 593.718C1375.59 595.89 1379.26 597.651 1383.8 597.651Z" fill="#A8A8A8"/>
<path d="M1386.09 593.068H1382.16L1378.77 580.011C1378.63 579.461 1378.61 578.887 1378.73 578.331C1378.84 577.775 1379.08 577.253 1379.43 576.804C1379.78 576.356 1380.22 575.993 1380.73 575.743C1381.24 575.493 1381.8 575.363 1382.37 575.363V575.363C1383.36 575.363 1384.31 575.755 1385 576.452C1385.7 577.149 1386.09 578.094 1386.09 579.08V593.068Z" fill="#A8A8A8"/>
<path d="M1321.1 317.751L1456.34 306.607L1453.06 355.77L1317.82 362.325L1321.1 317.751Z" fill="#535461"/>
<path d="M1455.68 306.607L1518.05 311.196L1509.52 728.095L1414 789.385L1407.43 784.796L1407.1 675.655L1386.09 652.057V619.282L1422.86 587.162L1485.23 448.851L1476.36 369.863H1480.96L1451.75 359.703L1455.68 306.607Z" fill="#D6D6E3"/>
<path d="M1461.59 307.263L1524.62 311.196L1516.08 728.096L1413.67 789.057V675.655L1392.66 652.057V619.282L1429.42 587.163L1491.79 448.852L1480.63 369.536L1458.31 359.703L1461.59 307.263Z" fill="#535461"/>
<path d="M1350.72 559.828C1341.52 578.837 1318.9 573.908 1318.9 573.908C1317.73 572.827 1310.42 571.017 1304.87 569.765C1301.31 568.959 1298.48 568.395 1298.48 568.395L1306.25 557.586L1312.07 558.779L1320.76 560.562C1320.76 560.562 1359.94 540.825 1350.72 559.828Z" fill="url(#paint1_linear)"/>
<g opacity="0.08">
<path opacity="0.08" d="M1350.72 559.828C1341.52 578.837 1318.9 573.908 1318.9 573.908C1317.73 572.827 1310.42 571.017 1304.87 569.765C1301.31 568.959 1298.48 568.395 1298.48 568.395L1306.25 557.586L1312.07 558.779L1320.76 560.562C1320.76 560.562 1359.94 540.825 1350.72 559.828Z" fill="url(#paint2_linear)"/>
</g>
<g opacity="0.1">
<path opacity="0.1" d="M1312.08 558.779L1304.86 569.772C1301.3 568.966 1298.47 568.402 1298.47 568.402L1306.24 557.593L1312.08 558.779Z" fill="url(#paint3_linear)"/>
</g>
<path d="M1231.34 519.489C1231.34 519.489 1265.2 572.316 1301.45 572.191L1311.3 557.114C1311.3 557.114 1278.12 533.451 1273.71 521.114C1272.08 516.526 1268.72 510.239 1265.13 504.071C1254.12 485.173 1224.43 497.516 1230.96 518.282C1231.08 518.693 1231.21 519.095 1231.34 519.489Z" fill="url(#paint4_linear)"/>
<g opacity="0.05">
<path opacity="0.05" d="M1231.34 519.489C1231.34 519.489 1265.2 572.316 1301.45 572.191L1311.3 557.114C1311.3 557.114 1278.12 533.451 1273.71 521.114C1272.08 516.526 1268.72 510.239 1265.13 504.071C1254.12 485.173 1224.43 497.516 1230.96 518.282C1231.08 518.693 1231.21 519.095 1231.34 519.489Z" fill="url(#paint5_linear)"/>
</g>
<path d="M1209.3 826.546L1210.89 844.9C1210.89 844.9 1262.9 836.273 1262.44 819.027C1261.99 801.781 1209.3 826.546 1209.3 826.546Z" fill="url(#paint6_linear)"/>
<g opacity="0.1">
<path opacity="0.1" d="M1209.3 826.546L1210.89 844.9C1210.89 844.9 1262.9 836.273 1262.44 819.027C1261.99 801.781 1209.3 826.546 1209.3 826.546Z" fill="url(#paint7_linear)"/>
</g>
<path d="M1270.16 832.294L1269.26 848.216C1269.26 848.216 1341.47 842.907 1338.74 827.896C1336.01 812.885 1297.87 821.236 1297.87 821.236L1270.16 832.294Z" fill="url(#paint8_linear)"/>
<path d="M1271.07 676.612C1271.07 676.612 1266.8 688.411 1261.35 701.928C1256.14 714.868 1249.85 729.413 1245.18 736.761C1235.64 751.799 1234.28 798.241 1234.28 798.241C1232.47 805.76 1241.55 820.358 1241.55 820.358C1223.39 839.367 1206.58 828.322 1206.58 828.322C1209.76 822.573 1204.31 806.205 1204.31 806.205C1204.31 806.205 1211.58 730.573 1216.13 727.034C1220.68 723.494 1224.3 705.802 1224.3 705.802L1220.24 645.679L1219.3 631.914L1258.36 614.667L1261.18 628.381L1263.97 641.956L1271.07 676.612Z" fill="url(#paint9_linear)"/>
<g opacity="0.1">
<path opacity="0.1" d="M1271.07 676.612C1271.07 676.612 1266.8 688.411 1261.35 701.928C1256.14 714.868 1249.85 729.413 1245.18 736.761C1235.64 751.799 1234.28 798.241 1234.28 798.241C1232.47 805.76 1241.55 820.358 1241.55 820.358C1223.39 839.367 1206.58 828.322 1206.58 828.322C1209.76 822.573 1204.31 806.205 1204.31 806.205C1204.31 806.205 1211.58 730.573 1216.13 727.034C1220.68 723.494 1224.3 705.802 1224.3 705.802L1220.24 645.679L1219.3 631.914L1258.36 614.667L1261.18 628.381L1263.97 641.956L1271.07 676.612Z" fill="url(#paint10_linear)"/>
</g>
<path d="M1305.13 823.012C1296.95 837.165 1268.36 835.395 1268.36 835.395V793.816C1268.36 793.816 1260.19 747.374 1264.73 736.788C1269.28 726.201 1262.91 706.713 1262.91 706.713L1261.35 701.934L1242.83 644.906L1237.46 628.374H1298.77C1298.77 628.374 1298.77 631.206 1298.77 635.807C1298.85 653.506 1299.22 697.366 1301.02 707.546C1303.3 720.374 1296.93 728.777 1296.93 728.777C1296.93 728.777 1300.57 780.968 1297.39 797.33C1294.21 813.691 1305.13 823.012 1305.13 823.012Z" fill="url(#paint11_linear)"/>
<path d="M1254.72 434.234C1254.72 434.234 1245.18 459.884 1226.11 469.172C1207.04 478.461 1257.45 481.115 1257.45 481.115C1257.45 481.115 1265.62 461.654 1284.24 447.94L1254.72 434.234Z" fill="url(#paint12_linear)"/>
<g opacity="0.1">
<path opacity="0.1" d="M1298.79 635.833C1291.19 637.295 1277.74 639.799 1263.96 641.975C1256.74 643.116 1249.44 644.165 1242.83 644.925C1232.67 646.099 1224.17 646.59 1220.23 645.672L1219.3 631.907L1258.35 614.661L1261.17 628.374H1298.77C1298.77 628.374 1298.77 631.232 1298.79 635.833Z" fill="url(#paint13_linear)"/>
</g>
<path d="M1305.13 633.264C1305.13 633.264 1228.38 648.747 1218.84 643.883C1209.31 639.019 1207.03 626.637 1209.76 612.924C1212.49 599.211 1209.76 565.157 1204.76 521.809C1202.25 499.981 1207.79 485.33 1213.92 476.166C1216.61 472.216 1220.23 468.988 1224.47 466.767C1228.71 464.546 1233.43 463.4 1238.21 463.43C1246.51 463.396 1254.58 466.168 1261.1 471.296C1263.02 472.823 1264.96 474.075 1266.54 474.501C1267.79 474.836 1269.66 476.16 1271.79 477.962C1281.26 486.107 1287.21 497.597 1288.38 510.023C1289.17 518.263 1290 528.639 1290.41 539.127C1290.83 548.084 1290.74 557.057 1290.13 566.003C1289.71 572.552 1290.02 579.129 1291.07 585.609C1294.6 609.509 1305.13 633.264 1305.13 633.264Z" fill="url(#paint14_linear)"/>
<g opacity="0.1">
<path opacity="0.1" d="M1291.07 585.642C1263.22 568.717 1248.81 521.363 1248.81 521.363C1248.81 520.95 1248.81 520.544 1248.77 520.144C1248.14 498.427 1280.17 494.245 1285.6 515.319C1287.37 522.182 1288.89 529.144 1289.2 533.955C1289.37 535.726 1289.78 537.465 1290.42 539.127C1290.83 548.084 1290.74 557.057 1290.14 566.003C1289.72 572.563 1290.03 579.151 1291.07 585.642V585.642Z" fill="url(#paint15_linear)"/>
</g>
<g opacity="0.1">
<path opacity="0.1" d="M1249.95 449.494C1254.48 456.973 1258.06 464.505 1267.26 465.783C1271.78 460.062 1277.02 454.958 1282.87 450.602L1253.33 436.889C1253.33 436.889 1255.06 441.569 1249.95 449.494Z" fill="url(#paint16_linear)"/>
</g>
<path d="M1272.89 463.417C1289.44 463.417 1302.86 450.348 1302.86 434.227C1302.86 418.106 1289.44 405.038 1272.89 405.038C1256.33 405.038 1242.91 418.106 1242.91 434.227C1242.91 450.348 1256.33 463.417 1272.89 463.417Z" fill="url(#paint17_linear)"/>
<g opacity="0.1">
<path opacity="0.1" d="M1302.51 443.384C1303.75 443.437 1304.98 443.113 1306.03 442.454C1307.47 441.411 1307.93 439.543 1308.26 437.826C1309.04 433.768 1309.65 429.494 1308.26 425.588C1307.36 423.005 1305.63 420.77 1304.43 418.318C1301.73 412.963 1301.25 406.519 1297.41 401.871C1295.02 398.961 1286.59 401.871 1283.08 400.403C1275.51 397.231 1272.23 390.793 1263.99 390.8C1260.97 390.727 1257.96 391.102 1255.05 391.914C1251.37 393.048 1248.11 395.192 1245.08 397.545C1239.83 401.622 1234.68 407.22 1235.15 413.762C1235.45 417.938 1238.01 421.628 1239.51 425.522C1242.03 432.077 1241.57 439.445 1239.75 446.236C1238.98 449.127 1238.09 452.581 1240.15 454.79C1241.46 456.173 1243.54 456.567 1245.4 456.265C1247.25 455.855 1249.03 455.147 1250.65 454.167C1253.6 452.601 1256.6 451.008 1258.99 448.707C1260.57 447.186 1261.84 445.39 1263.35 443.797C1266.29 440.751 1269.62 438.107 1273.26 435.931C1276.17 434.188 1279.17 435.276 1282.22 436.41C1288.93 438.868 1295.14 443.516 1302.51 443.384Z" fill="url(#paint18_linear)"/>
</g>
<path d="M1302.06 442.939C1303.3 442.992 1304.53 442.667 1305.58 442.008C1307.02 440.966 1307.48 439.097 1307.81 437.38C1308.59 433.322 1309.2 429.049 1307.81 425.142C1306.91 422.559 1305.18 420.324 1303.97 417.872C1301.28 412.517 1300.8 406.073 1296.96 401.426C1294.57 398.515 1286.6 401.871 1283.08 400.397C1275.51 397.224 1271.78 390.348 1263.54 390.354C1260.52 390.281 1257.51 390.656 1254.6 391.469C1250.91 392.603 1247.66 394.746 1244.63 397.099C1239.38 401.177 1234.23 406.775 1234.7 413.316C1235 417.492 1237.55 421.183 1239.06 425.076C1241.58 431.631 1241.12 438.999 1239.3 445.79C1238.53 448.681 1237.64 452.135 1239.69 454.344C1241.01 455.728 1243.09 456.121 1244.95 455.819C1246.8 455.409 1248.57 454.701 1250.2 453.722C1253.15 452.155 1256.15 450.562 1258.54 448.261C1260.12 446.741 1261.39 444.944 1262.9 443.352C1265.84 440.306 1269.17 437.661 1272.81 435.486C1275.72 433.742 1278.72 434.83 1281.77 435.964C1288.48 438.422 1294.68 443.07 1302.06 442.939Z" fill="url(#paint19_linear)"/>
<g opacity="0.05">
<path opacity="0.05" d="M1291.07 585.642C1290.03 579.162 1289.72 572.585 1290.14 566.036C1290.74 557.09 1290.83 548.117 1290.42 539.16C1290.01 528.672 1289.18 518.295 1288.39 510.056C1287.21 497.617 1281.25 486.118 1271.76 477.976C1269.65 476.173 1267.77 474.842 1266.51 474.514C1264.92 474.095 1262.99 472.836 1261.07 471.309C1254.62 466.176 1262.82 476.173 1264.92 477.976C1274.41 486.118 1280.38 497.617 1281.55 510.056C1282.34 518.295 1283.17 528.672 1283.58 539.16C1284 548.117 1283.91 557.09 1283.31 566.036C1282.88 572.585 1283.2 579.162 1284.24 585.642C1287.77 609.522 1298.29 633.264 1298.29 633.264C1298.29 633.264 1246.92 643.628 1223.01 644.729C1241.74 646.04 1305.1 633.264 1305.1 633.264C1305.1 633.264 1294.6 609.509 1291.07 585.642Z" fill="url(#paint20_linear)"/>
</g>
<path d="M1353.72 589.922C1339.64 605.844 1319.21 595.232 1319.21 595.232C1318.38 593.881 1311.82 590.243 1306.83 587.595C1303.62 585.897 1301.04 584.613 1301.04 584.613L1311.49 576.209L1316.77 578.87L1324.65 582.843C1324.65 582.843 1367.82 574 1353.72 589.922Z" fill="url(#paint21_linear)"/>
<g opacity="0.1">
<path opacity="0.1" d="M1316.77 578.87L1306.83 587.595C1303.62 585.897 1301.04 584.613 1301.04 584.613L1311.49 576.209L1316.77 578.87Z" fill="url(#paint22_linear)"/>
</g>
<path d="M1249.73 520.039C1249.73 520.039 1267.89 579.749 1302.86 589.037L1316.49 577.094C1316.49 577.094 1291.01 545.669 1290.11 532.631C1289.79 527.813 1288.28 520.832 1286.52 513.995C1281.08 492.928 1249.06 497.103 1249.68 518.82C1249.69 519.222 1249.71 519.628 1249.73 520.039Z" fill="url(#paint23_linear)"/>
<path opacity="0.05" d="M1214.53 578.202C1214.53 578.202 1226.35 568.913 1237.24 575.993C1248.13 583.072 1264.03 582.187 1266.3 582.626" fill="url(#paint24_linear)"/>
<path d="M1347.32 558.858C1338.55 577.396 1317.04 572.624 1317.04 572.624C1315.92 571.568 1308.96 569.805 1303.69 568.586C1300.3 567.799 1297.61 567.275 1297.61 567.275L1305 556.728L1310.54 557.894L1318.81 559.631C1318.81 559.631 1356.08 540.314 1347.32 558.858Z" fill="#F7C4A7"/>
<path opacity="0.08" d="M1347.32 558.858C1338.55 577.396 1317.04 572.624 1317.04 572.624C1315.92 571.568 1308.96 569.805 1303.69 568.586C1300.3 567.799 1297.61 567.275 1297.61 567.275L1305 556.728L1310.54 557.894L1318.81 559.631C1318.81 559.631 1356.08 540.314 1347.32 558.858Z" fill="black"/>
<path opacity="0.1" d="M1310.54 557.829L1303.69 568.553C1300.3 567.766 1297.61 567.242 1297.61 567.242L1305 556.695L1310.54 557.829Z" fill="black"/>
<path d="M1233.71 519.495C1233.71 519.495 1265.93 571.044 1300.43 570.913L1309.81 556.229C1309.81 556.229 1278.24 533.143 1274.04 521.101C1272.49 516.657 1269.29 510.495 1265.88 504.491C1255.38 486.058 1227.15 498.099 1233.35 518.361C1233.47 518.732 1233.59 519.11 1233.71 519.495Z" fill="#575988"/>
<path opacity="0.05" d="M1233.71 519.495C1233.71 519.495 1265.93 571.044 1300.43 570.913L1309.81 556.229C1309.81 556.229 1278.24 533.143 1274.04 521.101C1272.49 516.657 1269.29 510.495 1265.88 504.491C1255.38 486.058 1227.15 498.099 1233.35 518.361C1233.47 518.732 1233.59 519.11 1233.71 519.495Z" fill="black"/>
<path d="M1212.74 819.093L1214.25 837.001C1214.25 837.001 1263.74 828.584 1263.3 811.757C1262.87 794.931 1212.74 819.093 1212.74 819.093Z" fill="#535461"/>
<path opacity="0.1" d="M1212.74 819.093L1214.25 837.001C1214.25 837.001 1263.74 828.584 1263.3 811.757C1262.87 794.931 1212.74 819.093 1212.74 819.093Z" fill="black"/>
<path d="M1270.65 824.703L1269.79 840.245C1269.79 840.245 1338.51 835.067 1335.92 820.397C1333.32 805.727 1297.02 813.92 1297.02 813.92L1270.65 824.703Z" fill="#535461"/>
<path d="M1271.51 672.798C1271.51 672.798 1267.45 684.295 1262.26 697.497C1257.3 710.122 1251.31 724.314 1246.88 731.485C1237.83 746.161 1236.52 791.47 1236.52 791.47C1234.79 798.805 1243.43 813.049 1243.43 813.049C1226.14 831.606 1210.15 820.817 1210.15 820.817C1213.18 815.205 1207.99 799.237 1207.99 799.237C1207.99 799.237 1214.9 725.441 1219.23 721.993C1223.56 718.545 1227 701.279 1227 701.279L1223.14 642.618L1222.25 629.213L1259.42 612.38L1262.12 625.759L1264.75 639.006L1271.51 672.798Z" fill="#6A5C99"/>
<path opacity="0.1" d="M1271.51 672.798C1271.51 672.798 1267.45 684.295 1262.26 697.497C1257.3 710.122 1251.31 724.314 1246.88 731.485C1237.83 746.161 1236.52 791.47 1236.52 791.47C1234.79 798.805 1243.43 813.049 1243.43 813.049C1226.14 831.606 1210.15 820.817 1210.15 820.817C1213.18 815.205 1207.99 799.237 1207.99 799.237C1207.99 799.237 1214.9 725.441 1219.23 721.993C1223.56 718.545 1227 701.279 1227 701.279L1223.14 642.618L1222.25 629.213L1259.42 612.38L1262.12 625.759L1264.75 639.006L1271.51 672.798Z" fill="black"/>
<path d="M1303.93 815.638C1296.15 829.449 1268.92 827.719 1268.92 827.719V787.15C1268.92 787.15 1261.14 741.835 1265.46 731.478C1269.78 721.121 1263.74 702.131 1263.74 702.131L1262.27 697.49L1244.64 641.877L1239.53 625.752H1297.88C1297.88 625.752 1297.88 628.512 1297.88 633.008C1297.95 650.268 1298.31 693.072 1300.03 703.003C1302.19 715.516 1296.13 723.717 1296.13 723.717C1296.13 723.717 1299.59 774.636 1296.57 790.578C1293.54 806.52 1303.93 815.638 1303.93 815.638Z" fill="#6A5C99"/>
<path d="M1255.96 436.312C1255.96 436.312 1246.88 461.339 1228.72 470.398C1210.57 479.457 1258.55 482.052 1258.55 482.052C1258.55 482.052 1266.33 463.043 1284.05 449.684L1255.96 436.312Z" fill="#F7C4A7"/>
<path opacity="0.1" d="M1297.9 633.015C1290.66 634.418 1277.88 636.882 1264.75 639.006C1257.88 640.12 1250.93 641.143 1244.64 641.884C1234.97 643.024 1226.87 643.509 1223.12 642.611L1222.24 629.206L1259.41 612.373L1262.12 625.758H1297.91C1297.91 625.758 1297.88 628.518 1297.9 633.015Z" fill="black"/>
<path d="M1303.93 630.485C1303.93 630.485 1230.89 645.561 1221.82 640.841C1212.74 636.122 1210.58 624.008 1213.17 610.636C1215.76 597.264 1213.17 564.03 1208.42 521.737C1206.02 500.439 1211.3 486.149 1217.13 477.202C1219.64 473.371 1223.07 470.226 1227.1 468.051C1231.14 465.877 1235.65 464.741 1240.24 464.747C1248.17 464.719 1255.86 467.426 1262.02 472.41C1263.85 473.898 1265.69 475.124 1267.19 475.537C1268.38 475.858 1270.17 477.156 1272.17 478.913C1281.25 486.95 1286.91 498.146 1288 510.213C1288.75 518.249 1289.54 528.377 1289.93 538.616C1290.33 547.354 1290.24 556.107 1289.67 564.836C1289.27 571.225 1289.57 577.639 1290.56 583.964C1293.91 607.339 1303.93 630.485 1303.93 630.485Z" fill="#575988"/>
<path opacity="0.1" d="M1290.55 584.043C1264.04 567.53 1250.34 521.324 1250.34 521.324C1250.34 520.924 1250.34 520.524 1250.29 520.138C1249.7 498.952 1280.17 494.868 1285.35 515.431C1287.03 522.13 1288.47 528.915 1288.77 533.615C1288.93 535.34 1289.32 537.037 1289.92 538.662C1290.32 547.4 1290.24 556.154 1289.67 564.882C1289.26 571.282 1289.56 577.707 1290.55 584.043Z" fill="black"/>
<path opacity="0.1" d="M1251.42 451.198C1255.73 458.494 1259.14 465.849 1267.9 467.088C1272.18 461.521 1277.17 456.54 1282.75 452.273L1254.66 438.895C1254.66 438.895 1256.28 443.47 1251.42 451.198Z" fill="black"/>
<path d="M1273.25 464.793C1289 464.793 1301.77 452.042 1301.77 436.312C1301.77 420.582 1289 407.83 1273.25 407.83C1257.49 407.83 1244.72 420.582 1244.72 436.312C1244.72 452.042 1257.49 464.793 1273.25 464.793Z" fill="#F7C4A7"/>
<path opacity="0.1" d="M1301.44 445.24C1302.63 445.287 1303.8 444.967 1304.79 444.322C1306.16 443.306 1306.6 441.477 1306.91 439.806C1307.65 435.873 1308.22 431.677 1306.91 427.862C1306.05 425.339 1304.43 423.162 1303.26 420.77C1300.69 415.526 1300.24 409.259 1296.59 404.723C1294.3 401.885 1286.29 404.723 1282.94 403.288C1275.72 400.194 1272.62 393.914 1264.78 393.92C1261.9 393.847 1259.02 394.214 1256.24 395.009C1252.74 396.11 1249.64 398.22 1246.76 400.502C1241.75 404.481 1236.86 409.941 1237.31 416.325C1237.6 420.403 1240.03 423.969 1241.46 427.797C1243.86 434.208 1243.43 441.385 1241.69 448.006C1240.95 450.825 1240.11 454.194 1242.06 456.357C1243.28 457.701 1245.29 458.094 1247.09 457.793C1248.86 457.394 1250.56 456.703 1252.11 455.747C1254.92 454.22 1257.77 452.667 1260.04 450.425C1261.54 448.937 1262.76 447.187 1264.19 445.633C1266.98 442.669 1270.15 440.088 1273.62 437.957C1276.39 436.259 1279.24 437.302 1282.16 438.422C1288.52 440.835 1294.42 445.371 1301.44 445.24Z" fill="black"/>
<path d="M1301.01 444.807C1302.2 444.859 1303.36 444.543 1304.36 443.903C1305.73 442.887 1306.17 441.058 1306.47 439.386C1307.22 435.453 1307.79 431.258 1306.47 427.443C1305.62 424.919 1304 422.743 1302.82 420.35C1300.26 415.106 1299.8 408.84 1296.15 404.304C1293.87 401.465 1286.31 404.743 1282.94 403.301C1275.72 400.207 1272.18 393.468 1264.35 393.468C1261.46 393.394 1258.58 393.761 1255.81 394.556C1252.31 395.658 1249.21 397.768 1246.33 400.05C1241.32 404.028 1236.43 409.489 1236.88 415.873C1237.17 419.951 1239.6 423.516 1241.03 427.345C1243.43 433.755 1243 440.933 1241.26 447.554C1240.52 450.372 1239.67 453.742 1241.63 455.905C1242.85 457.249 1244.86 457.642 1246.65 457.34C1248.43 456.941 1250.13 456.25 1251.68 455.295C1254.49 453.768 1257.33 452.214 1259.61 449.973C1261.11 448.485 1262.32 446.734 1263.76 445.181C1266.58 442.22 1269.78 439.647 1273.28 437.531C1276.05 435.833 1278.89 436.876 1281.82 437.997C1288.09 440.389 1293.99 444.938 1301.01 444.807Z" fill="#632652"/>
<path opacity="0.05" d="M1290.55 584.042C1289.57 577.723 1289.28 571.316 1289.69 564.935C1290.26 556.206 1290.35 547.453 1289.95 538.714C1289.56 528.476 1288.77 518.355 1288.02 510.312C1286.93 498.245 1281.27 487.048 1272.19 479.011C1270.19 477.248 1268.4 475.957 1267.21 475.635C1265.71 475.223 1263.87 473.997 1262.04 472.509C1255.9 467.501 1263.7 477.255 1265.71 479.011C1274.79 487.048 1280.45 498.245 1281.54 510.312C1282.29 518.348 1283.08 528.476 1283.47 538.714C1283.87 547.453 1283.78 556.206 1283.21 564.935C1282.81 571.324 1283.11 577.737 1284.1 584.062C1287.46 607.359 1297.48 630.524 1297.48 630.524C1297.48 630.524 1248.58 640.632 1225.83 641.714C1243.67 643.025 1303.96 630.524 1303.96 630.524C1303.96 630.524 1293.91 607.339 1290.55 584.042Z" fill="black"/>
<path d="M1350.18 588.218C1336.78 603.753 1317.35 593.396 1317.35 593.396C1316.56 592.085 1310.33 588.526 1305.53 585.95C1302.48 584.291 1300.03 583.039 1300.03 583.039L1309.97 574.839L1315 577.461L1322.52 581.322C1322.52 581.322 1363.58 572.682 1350.18 588.218Z" fill="#F7C4A7"/>
<path opacity="0.1" d="M1315.02 577.435L1305.55 585.956C1302.5 584.298 1300.05 583.046 1300.05 583.046L1309.99 574.846L1315.02 577.435Z" fill="black"/>
<path d="M1251.2 520.033C1251.2 520.033 1268.49 578.294 1301.75 587.353L1314.72 575.698C1314.72 575.698 1290.43 545.04 1289.62 532.317C1289.31 527.617 1287.88 520.826 1286.19 514.133C1281.02 493.576 1250.55 497.654 1251.14 518.839C1251.17 519.233 1251.19 519.63 1251.2 520.033Z" fill="#575988"/>
<path opacity="0.05" d="M1217.71 576.779C1217.71 576.779 1228.95 567.714 1239.32 574.623C1249.69 581.532 1264.82 580.667 1266.98 581.099" fill="black"/>
</g>
</g>
<defs>
<linearGradient id="paint0_linear" x1="1386.09" y1="789.392" x2="1386.09" y2="304.32" gradientUnits="userSpaceOnUse">
<stop stop-color="#808080" stop-opacity="0.25"/>
<stop offset="0.54" stop-color="#808080" stop-opacity="0.12"/>
<stop offset="1" stop-color="#808080" stop-opacity="0.1"/>
</linearGradient>
<linearGradient id="paint1_linear" x1="29363.8" y1="10876.2" x2="29363.8" y2="10075.1" gradientUnits="userSpaceOnUse">
<stop stop-color="#808080" stop-opacity="0.25"/>
<stop offset="0.54" stop-color="#808080" stop-opacity="0.12"/>
<stop offset="1" stop-color="#808080" stop-opacity="0.1"/>
</linearGradient>
<linearGradient id="paint2_linear" x1="29363.8" y1="10876.2" x2="29363.8" y2="10075.1" gradientUnits="userSpaceOnUse">
<stop stop-color="#808080" stop-opacity="0.25"/>
<stop offset="0.54" stop-color="#808080" stop-opacity="0.12"/>
<stop offset="1" stop-color="#808080" stop-opacity="0.1"/>
</linearGradient>
<linearGradient id="paint3_linear" x1="8004.49" y1="5957.51" x2="8004.49" y2="5731.22" gradientUnits="userSpaceOnUse">
<stop stop-color="#808080" stop-opacity="0.25"/>
<stop offset="0.54" stop-color="#808080" stop-opacity="0.12"/>
<stop offset="1" stop-color="#808080" stop-opacity="0.1"/>
</linearGradient>
<linearGradient id="paint4_linear" x1="36991.3" y1="35124.5" x2="36991.3" y2="25976.4" gradientUnits="userSpaceOnUse">
<stop stop-color="#808080" stop-opacity="0.25"/>
<stop offset="0.54" stop-color="#808080" stop-opacity="0.12"/>
<stop offset="1" stop-color="#808080" stop-opacity="0.1"/>
</linearGradient>
<linearGradient id="paint5_linear" x1="36991.3" y1="35124.5" x2="36991.3" y2="25976.4" gradientUnits="userSpaceOnUse">
<stop stop-color="#808080" stop-opacity="0.25"/>
<stop offset="0.54" stop-color="#808080" stop-opacity="0.12"/>
<stop offset="1" stop-color="#808080" stop-opacity="0.1"/>
</linearGradient>
<linearGradient id="paint6_linear" x1="21775.8" y1="28414.1" x2="21775.8" y2="26853.9" gradientUnits="userSpaceOnUse">
<stop stop-color="#808080" stop-opacity="0.25"/>
<stop offset="0.54" stop-color="#808080" stop-opacity="0.12"/>
<stop offset="1" stop-color="#808080" stop-opacity="0.1"/>
</linearGradient>
<linearGradient id="paint7_linear" x1="21775.8" y1="28414.1" x2="21775.8" y2="26853.9" gradientUnits="userSpaceOnUse">
<stop stop-color="#808080" stop-opacity="0.25"/>
<stop offset="0.54" stop-color="#808080" stop-opacity="0.12"/>
<stop offset="1" stop-color="#808080" stop-opacity="0.1"/>
</linearGradient>
<linearGradient id="paint8_linear" x1="35412.2" y1="26253.6" x2="35412.2" y2="24943.1" gradientUnits="userSpaceOnUse">
<stop stop-color="#808080" stop-opacity="0.25"/>
<stop offset="0.54" stop-color="#808080" stop-opacity="0.12"/>
<stop offset="1" stop-color="#808080" stop-opacity="0.1"/>
</linearGradient>
<linearGradient id="paint9_linear" x1="27226.7" y1="183346" x2="27226.7" y2="111618" gradientUnits="userSpaceOnUse">
<stop stop-color="#808080" stop-opacity="0.25"/>
<stop offset="0.54" stop-color="#808080" stop-opacity="0.12"/>
<stop offset="1" stop-color="#808080" stop-opacity="0.1"/>
</linearGradient>
<linearGradient id="paint10_linear" x1="27226.7" y1="183346" x2="27226.7" y2="111618" gradientUnits="userSpaceOnUse">
<stop stop-color="#808080" stop-opacity="0.25"/>
<stop offset="0.54" stop-color="#808080" stop-opacity="0.12"/>
<stop offset="1" stop-color="#808080" stop-opacity="0.1"/>
</linearGradient>
<linearGradient id="paint11_linear" x1="31076.9" y1="176389" x2="31076.9" y2="110971" gradientUnits="userSpaceOnUse">
<stop stop-color="#808080" stop-opacity="0.25"/>
<stop offset="0.54" stop-color="#808080" stop-opacity="0.12"/>
<stop offset="1" stop-color="#808080" stop-opacity="0.1"/>
</linearGradient>
<linearGradient id="paint12_linear" x1="27016.9" y1="14879.8" x2="27016.9" y2="11526.9" gradientUnits="userSpaceOnUse">
<stop stop-color="#808080" stop-opacity="0.25"/>
<stop offset="0.54" stop-color="#808080" stop-opacity="0.12"/>
<stop offset="1" stop-color="#808080" stop-opacity="0.1"/>
</linearGradient>
<linearGradient id="paint13_linear" x1="34791.4" y1="18245.3" x2="34791.4" y2="16733.9" gradientUnits="userSpaceOnUse">
<stop stop-color="#808080" stop-opacity="0.25"/>
<stop offset="0.54" stop-color="#808080" stop-opacity="0.12"/>
<stop offset="1" stop-color="#808080" stop-opacity="0.1"/>
</linearGradient>
<linearGradient id="paint14_linear" x1="43174.5" y1="101663" x2="43174.5" y2="51462.1" gradientUnits="userSpaceOnUse">
<stop stop-color="#808080" stop-opacity="0.25"/>
<stop offset="0.54" stop-color="#808080" stop-opacity="0.12"/>
<stop offset="1" stop-color="#808080" stop-opacity="0.1"/>
</linearGradient>
<linearGradient id="paint15_linear" x1="19819.6" y1="39841.4" x2="19819.6" y2="29043.8" gradientUnits="userSpaceOnUse">
<stop stop-color="#808080" stop-opacity="0.25"/>
<stop offset="0.54" stop-color="#808080" stop-opacity="0.12"/>
<stop offset="1" stop-color="#808080" stop-opacity="0.1"/>
</linearGradient>
<linearGradient id="paint16_linear" x1="15523.7" y1="8664.03" x2="15523.7" y2="7390.65" gradientUnits="userSpaceOnUse">
<stop stop-color="#808080" stop-opacity="0.25"/>
<stop offset="0.54" stop-color="#808080" stop-opacity="0.12"/>
<stop offset="1" stop-color="#808080" stop-opacity="0.1"/>
</linearGradient>
<linearGradient id="paint17_linear" x1="25158.4" y1="14959.5" x2="25158.4" y2="9759.69" gradientUnits="userSpaceOnUse">
<stop stop-color="#808080" stop-opacity="0.25"/>
<stop offset="0.54" stop-color="#808080" stop-opacity="0.12"/>
<stop offset="1" stop-color="#808080" stop-opacity="0.1"/>
</linearGradient>
<linearGradient id="paint18_linear" x1="33946.9" y1="18117.5" x2="33946.9" y2="11559.9" gradientUnits="userSpaceOnUse">
<stop stop-color="#808080" stop-opacity="0.25"/>
<stop offset="0.54" stop-color="#808080" stop-opacity="0.12"/>
<stop offset="1" stop-color="#808080" stop-opacity="0.1"/>
</linearGradient>
<linearGradient id="paint19_linear" x1="33894.7" y1="18073.1" x2="33894.7" y2="11515.5" gradientUnits="userSpaceOnUse">
<stop stop-color="#808080" stop-opacity="0.25"/>
<stop offset="0.54" stop-color="#808080" stop-opacity="0.12"/>
<stop offset="1" stop-color="#808080" stop-opacity="0.1"/>
</linearGradient>
<linearGradient id="paint20_linear" x1="36523.5" y1="98079.2" x2="36523.5" y2="51368.9" gradientUnits="userSpaceOnUse">
<stop stop-color="#808080" stop-opacity="0.25"/>
<stop offset="0.54" stop-color="#808080" stop-opacity="0.12"/>
<stop offset="1" stop-color="#808080" stop-opacity="0.1"/>
</linearGradient>
<linearGradient id="paint21_linear" x1="30639.7" y1="11538.8" x2="30639.7" y2="10767.5" gradientUnits="userSpaceOnUse">
<stop stop-color="#808080" stop-opacity="0.25"/>
<stop offset="0.54" stop-color="#808080" stop-opacity="0.12"/>
<stop offset="1" stop-color="#808080" stop-opacity="0.1"/>
</linearGradient>
<linearGradient id="paint22_linear" x1="9138.76" y1="5934.16" x2="9138.76" y2="5736.38" gradientUnits="userSpaceOnUse">
<stop stop-color="#808080" stop-opacity="0.25"/>
<stop offset="0.54" stop-color="#808080" stop-opacity="0.12"/>
<stop offset="1" stop-color="#808080" stop-opacity="0.1"/>
</linearGradient>
<linearGradient id="paint23_linear" x1="31912.5" y1="42505.9" x2="31912.5" y2="30463.2" gradientUnits="userSpaceOnUse">
<stop stop-color="#808080" stop-opacity="0.25"/>
<stop offset="0.54" stop-color="#808080" stop-opacity="0.12"/>
<stop offset="1" stop-color="#808080" stop-opacity="0.1"/>
</linearGradient>
<linearGradient id="paint24_linear" x1="21609.6" y1="4876.44" x2="21609.6" y2="4744.74" gradientUnits="userSpaceOnUse">
<stop stop-color="#808080" stop-opacity="0.25"/>
<stop offset="0.54" stop-color="#808080" stop-opacity="0.12"/>
<stop offset="1" stop-color="#808080" stop-opacity="0.1"/>
</linearGradient>
<clipPath id="clip0">
<rect width="1571" height="1147" fill="white"/>
</clipPath>
<clipPath id="clip1">
<rect width="560" height="548" fill="white" transform="translate(1011 300)"/>
</clipPath>
</defs>
</svg>
