<svg width="72" height="72" viewBox="0 0 72 72" fill="none" xmlns="http://www.w3.org/2000/svg">
<path d="M54.6481 30.6001V60.1201C54.6481 60.6241 54.2161 61.0561 53.7121 61.0561H45.4321C45.4321 61.0561 45.3601 61.0561 45.3601 60.9841V42.6961H26.5681V60.9841C26.5681 60.9841 26.5681 61.0561 26.4961 61.0561H18.3601C17.8561 61.0561 17.4241 60.6241 17.4241 60.1201V30.6001L14.3281 33.6961V60.1201C14.3281 62.3521 16.1281 64.1521 18.3601 64.1521H26.5681C28.2961 64.1521 29.7361 62.7121 29.7361 60.9841V45.7921H42.3361V60.9841C42.3361 62.7121 43.7761 64.1521 45.5041 64.1521H53.7121C55.9441 64.1521 57.7441 62.3521 57.7441 60.1201V33.6961L54.6481 30.6001V30.6001Z" fill="#F8B26A"/>
<path d="M57.744 39.1681L59.904 41.3281C61.416 42.8401 63.936 42.8401 65.448 41.3281L65.52 41.2561C67.032 39.7441 67.032 37.2241 65.52 35.7121L57.744 28.0081L52.776 23.0401L38.664 8.92814C37.224 7.48814 34.848 7.48814 33.408 8.92814L19.224 23.0401L14.256 28.0081L6.55197 35.7121C5.03997 37.2241 5.03997 39.7441 6.55197 41.2561L6.62397 41.3281C8.13597 42.8401 10.656 42.8401 12.168 41.3281L14.328 39.1681L17.424 36.0721L27.36 26.1361L30.456 23.0401L36.072 17.4241L41.688 23.0401L44.784 26.1361L54.72 36.0721L57.744 39.1681Z" fill="#88304E"/>
<path d="M41.6156 23.0403L35.9996 17.4243L30.3836 23.0403L27.2876 26.1363L17.3516 36.0723V60.1923C17.3516 60.6963 17.7836 61.1283 18.2876 61.1283H26.4956C26.4956 61.1283 26.5676 61.1283 26.5676 61.0563V42.6963H45.3596V60.9843C45.3596 60.9843 45.3596 61.0563 45.4316 61.0563H53.6396C54.1436 61.0563 54.5756 60.6243 54.5756 60.1203V36.0723L44.7116 26.1363L41.6156 23.0403Z" fill="#F5E6C8"/>
</svg>
