<svg width="72" height="72" viewBox="0 0 72 72" fill="none" xmlns="http://www.w3.org/2000/svg">
<path d="M35.9999 61.7759C48.3119 61.7759 58.3919 51.7679 58.3919 39.3839C58.3919 26.9999 48.3119 16.9919 35.9999 16.9919C23.6879 16.9919 13.6079 26.9999 13.6079 39.3839C13.6079 51.7679 23.6879 61.7759 35.9999 61.7759Z" fill="#F5E6C8"/>
<path d="M46.2239 21.7439C45.5759 21.3839 44.7119 21.5999 44.2799 22.1759L33.9119 37.0799C33.6959 37.4399 33.6239 37.8719 33.6959 38.2319C33.7679 38.6639 34.0559 38.9519 34.4159 39.1679L36.9359 40.6079C37.1519 40.7519 37.4399 40.8239 37.6559 40.8239C38.2319 40.8239 38.7359 40.4639 39.0239 39.9599L46.7999 23.6159C47.1599 22.9679 46.8719 22.1039 46.2239 21.7439Z" fill="#C33737"/>
<path d="M41.1118 12.1679H30.8878C30.6718 12.1679 30.5278 12.0239 30.5278 11.8079V9.0719C30.5278 7.0559 32.1838 5.3999 34.1998 5.3999H37.7998C39.8158 5.3999 41.4718 7.0559 41.4718 9.0719V11.8079C41.4718 12.0239 41.3278 12.1679 41.1118 12.1679Z" fill="#666666"/>
<path d="M35.9999 66.6C51.0479 66.6 63.2159 54.432 63.2159 39.384C63.2159 24.336 51.0479 12.168 35.9999 12.168C20.9519 12.168 8.78394 24.336 8.78394 39.384C8.78394 54.432 20.9519 66.6 35.9999 66.6ZM35.9999 16.992C48.3119 16.992 58.3919 27 58.3919 39.384C58.3919 51.768 48.3119 61.776 35.9999 61.776C23.6879 61.776 13.6079 51.768 13.6079 39.384C13.6079 27 23.6879 16.992 35.9999 16.992Z" fill="#333333"/>
</svg>
