<svg width="2482" height="1548" viewBox="0 0 2482 1548" fill="none" xmlns="http://www.w3.org/2000/svg">
<g clip-path="url(#clip0)">
<rect width="2482" height="1548" fill="#311D3F"/>
<path d="M-96.0768 963.426C-37.214 842.295 -14.0914 726.552 115.923 691.426C313.066 638.164 244.193 1081.42 447.923 1095.43C637.519 1108.46 640.063 762.701 827.923 791.426C987.472 815.822 949.724 1063.42 1107.92 1095.43C1338.73 1142.12 1281 667.588 1515.92 651.426C1761.96 634.499 1742.95 1127.9 1983.92 1075.43C2133 1042.96 2119.41 815.634 2271.92 811.426C2415.9 807.454 2485.91 913.028 2567.92 1031.43C2713.79 1242.02 2567.92 1687.43 2567.92 1687.43H-96.0768C-96.0768 1687.43 -219.654 1217.73 -96.0768 963.426Z" fill="#88304E"/>
<path d="M224 931.373C-116.518 675.021 -204 1935.37 -204 1935.37L2676 2019.37C2676 2019.37 2830.11 1472.66 2636 1235.37C2535.86 1112.96 2450.82 983.095 2296 1015.37C2149.5 1045.92 2204.09 1261.12 2068 1323.37C1811.29 1440.8 1805.74 829.774 1524 847.373C1260.52 863.832 1273.93 1453.08 1044 1323.37C898.936 1241.54 1025.55 1004.69 876 931.373C656.703 823.864 681.53 1458.88 448 1387.37C258.289 1329.29 382.508 1050.7 224 931.373Z" fill="#522546"/>
</g>
<defs>
<clipPath id="clip0">
<rect width="2482" height="1548" fill="white"/>
</clipPath>
</defs>
</svg>
