<svg width="150" height="150" viewBox="0 0 150 150" fill="none" xmlns="http://www.w3.org/2000/svg">
<path d="M115.526 62.4117H80.7502V33.6792C80.7502 31.9332 78.6742 31.0197 77.3872 32.2002L32.3182 73.5222C32.1125 73.7097 31.9481 73.9381 31.8356 74.1928C31.7231 74.4475 31.665 74.7228 31.665 75.0012C31.665 75.2796 31.7231 75.5549 31.8356 75.8096C31.9481 76.0643 32.1125 76.2927 32.3182 76.4802L77.3872 117.802C78.6742 118.983 80.7502 118.069 80.7502 116.323V87.5922H115.526C116.271 87.5922 116.985 87.2964 117.512 86.7698C118.038 86.2432 118.334 85.5289 118.334 84.7842V65.2197C118.334 64.475 118.038 63.7608 117.512 63.2342C116.985 62.7076 116.271 62.4117 115.526 62.4117Z" fill="#F5E6C8"/>
<path d="M123.61 15.002H26.3895C23.3688 15.002 20.4719 16.2019 18.3359 18.3379C16.2 20.4738 15 23.3708 15 26.3915V123.612C15 129.903 20.1 135.002 26.3895 135.002H123.61C129.9 135.002 135 129.902 135 123.612V26.393C135 20.102 129.9 15.002 123.61 15.002V15.002ZM118.333 84.785C118.333 85.5297 118.038 86.2439 117.511 86.7705C116.984 87.2971 116.27 87.593 115.525 87.593H80.7495V116.325C80.7495 118.071 78.6735 118.985 77.3865 117.804L32.3175 76.4825C32.1117 76.2949 31.9473 76.0665 31.8349 75.8119C31.7224 75.5572 31.6643 75.2819 31.6643 75.0035C31.6643 74.7251 31.7224 74.4497 31.8349 74.195C31.9473 73.9404 32.1117 73.712 32.3175 73.5245L77.3865 32.2025C78.6735 31.022 80.7495 31.9355 80.7495 33.6815V62.414H115.525C117.076 62.414 118.333 63.671 118.333 65.222V84.785V84.785Z" fill="#522546"/>
</svg>
