<svg width="47" height="47" viewBox="0 0 47 47" fill="none" xmlns="http://www.w3.org/2000/svg">
<path d="M24.5967 20.4689L30.7116 14.3537L32.606 16.248L26.4911 22.3632L24.5967 20.4689Z" fill="#C59B6D"/>
<path d="M34.2034 10.886L38.0917 6.99754L39.9861 8.89184L36.0977 12.7803L34.2034 10.886Z" fill="#F47E60"/>
<path d="M29.7979 4.69995H32.4768V10.199H29.7979V4.69995Z" fill="#F47E60"/>
<path d="M22.2773 8.9198L24.1716 7.02543L28.0601 10.9137L26.1658 12.8081L22.2773 8.9198Z" fill="#F47E60"/>
<path d="M34.2317 20.8182L36.126 18.9239L40.0144 22.8122L38.1201 24.7066L34.2317 20.8182Z" fill="#F47E60"/>
<path d="M36.801 14.5229H42.3V17.2019H36.801V14.5229Z" fill="#F47E60"/>
<path d="M13.5359 23.2649C15.3689 21.4319 17.6249 20.1629 19.9749 19.5049C15.9329 18.1889 11.3269 19.1759 8.13092 22.3719C3.57192 26.9309 3.57192 34.3099 8.13092 38.8689C9.02392 39.7619 10.0579 40.5139 11.1859 41.0779C7.94292 35.4379 8.69492 28.1059 13.5359 23.2649V23.2649Z" fill="#454444"/>
<path d="M29.3748 22.043L24.9098 17.578L22.0898 20.445C21.3848 20.069 20.6798 19.74 19.9278 19.505C17.5778 20.163 15.3688 21.432 13.4888 23.265C8.64782 28.106 7.89582 35.391 11.0918 41.078C15.4628 43.287 20.9148 42.535 24.5808 38.869C28.3878 35.062 28.9988 29.328 26.5078 24.863L29.3748 22.043Z" fill="#3A3335"/>
</svg>
