<svg width="47" height="47" viewBox="0 0 47 47" fill="none" xmlns="http://www.w3.org/2000/svg">
<path d="M23.5002 42.3002C33.8831 42.3002 42.3002 33.8831 42.3002 23.5002C42.3002 13.1172 33.8831 4.7002 23.5002 4.7002C13.1172 4.7002 4.7002 13.1172 4.7002 23.5002C4.7002 33.8831 13.1172 42.3002 23.5002 42.3002Z" fill="#AD3450"/>
<path d="M30.0333 13.6303L23.5003 20.1633L16.9673 13.6303C16.0273 12.6903 14.5233 12.6903 13.6303 13.6303C12.7373 14.5703 12.6903 16.0743 13.6303 16.9673L20.1633 23.5003L13.6303 30.0333C12.6903 30.9733 12.6903 32.4773 13.6303 33.3703C14.5703 34.3103 16.0743 34.3103 16.9673 33.3703L23.5003 26.8373L30.0333 33.3703C30.9733 34.3103 32.4773 34.3103 33.3703 33.3703C34.3103 32.4303 34.3103 30.9263 33.3703 30.0333L26.8373 23.5003L33.3703 16.9673C34.3103 16.0273 34.3103 14.5233 33.3703 13.6303C32.4773 12.6903 30.9733 12.6903 30.0333 13.6303Z" fill="#FDF0D5"/>
</svg>
