<svg width="25" height="25" viewBox="0 0 38 38" fill="none" xmlns="http://www.w3.org/2000/svg">
<path d="M11.9324 6.58655H31.8824V20.3931H11.9324V6.58655Z" fill="#E15B64"/>
<path d="M11.9324 35.34C15.1438 35.34 17.7472 34.1251 17.7472 32.6264C17.7472 31.1278 15.1438 29.9128 11.9324 29.9128C8.72103 29.9128 6.11768 31.1278 6.11768 32.6264C6.11768 34.1251 8.72103 35.34 11.9324 35.34Z" fill="#ABBD81"/>
<path d="M11.9324 4.68654V31.73" stroke="#E0E0E0" stroke-width="1.88" stroke-miterlimit="10" stroke-linecap="round"/>
<path d="M11.9324 6.39692C12.9643 6.39692 13.8009 5.56039 13.8009 4.52846C13.8009 3.49654 12.9643 2.66 11.9324 2.66C10.9005 2.66 10.064 3.49654 10.064 4.52846C10.064 5.56039 10.9005 6.39692 11.9324 6.39692Z" fill="#E0E0E0"/>
</svg>
