<svg width="1571" height="1147" viewBox="0 0 1571 1147" fill="none" xmlns="http://www.w3.org/2000/svg">
<g clip-path="url(#clip0)">
<rect width="1571" height="1147" fill="#311D3F"/>
<path d="M1203.1 239.907C1226.19 152.297 1284.43 115.505 1364.65 73.4861C1492.18 6.68112 1733 87.3147 1733 87.3147V1180.73C1733 1180.73 1205.62 1374.83 989.62 1180.73C907.976 1107.37 825.238 1055.52 834.749 946.123C846.631 809.457 1132.42 886.187 1125.43 749.183C1121.86 679.095 1031.66 661.647 1038.7 591.823C1050.15 478.404 1270 610.827 1317.95 507.42C1365.77 404.279 1174.13 349.851 1203.1 239.907Z" fill="#522546"/>
<g clip-path="url(#clip1)">
<path d="M1584.69 308.928L1539.85 306.214L1513.91 304.366V304.32H1513.59H1513.23V304.372L1373.71 315.516H1362.14L1360.78 363.597L1383.24 371.502L1396.85 440.658L1334.92 563.151L1297.5 591.469V618.469L1319.96 640.206L1321.32 739.659L1328.13 740.97V739.914L1331.55 740.57V740.963L1464.46 785.59L1470.05 789.372L1481.73 782.102L1575.88 727.794L1584.69 308.928ZM1441.8 617.879L1478.21 587.071L1441.8 617.879ZM1315.53 630.662L1325.37 640.212V640.802L1315.53 630.662Z" fill="url(#paint0_linear)"/>
<path d="M1333.43 642.225L1466.04 675.655L1446.35 653.368L1435.19 639.603L1318.98 616.66L1313.73 621.249L1333.43 642.225Z" fill="#535461"/>
<path d="M1313.73 621.249L1444.38 651.402L1445.03 619.938L1407.61 605.517L1332.77 593.062H1311.11L1313.73 621.249Z" fill="#D6D6E3"/>
<path d="M1408.27 442.952L1541.54 451.473V426.564L1532.35 370.847L1527.75 366.914L1394.48 370.847L1408.27 442.952Z" fill="#D6D6E3"/>
<path d="M1376.76 317.751H1370.19L1368.88 365.603L1390.54 373.469L1403.67 442.296L1343.93 564.22L1307.82 592.406V619.282L1329.49 640.914L1330.8 739.895L1337.37 741.206L1336.05 642.88L1314.39 619.938L1313.73 592.406L1348.53 564.875L1409.58 442.952L1396.45 373.469L1374.79 364.292L1376.76 317.751Z" fill="#D6D6E3"/>
<path d="M1371.51 317.751H1364.94L1363.63 365.603L1385.29 373.469L1398.42 442.296L1338.68 564.22L1302.57 592.406V619.282L1324.24 640.914L1325.55 739.895L1332.12 741.206L1330.8 642.88L1309.14 619.938L1308.48 592.406L1344.59 564.875L1404.33 442.952L1391.2 373.469L1369.54 364.292L1371.51 317.751Z" fill="#535461"/>
<path d="M1371.18 360.686L1374.46 365.275L1392.84 373.797L1538.59 369.864L1524.47 365.603L1509.37 359.048L1511.34 353.804L1371.18 360.686Z" fill="#A8A8A8"/>
<path d="M1346.56 566.842L1479.83 588.474L1506.75 531.445L1543.51 449.507L1408.27 442.952L1346.56 566.842Z" fill="#522546"/>
<path d="M1311.11 593.062L1441.09 619.282L1476.9 588.001L1346.89 565.858L1311.11 593.062Z" fill="#D6D6E3"/>
<path d="M1335.4 638.947V741.206L1464.07 785.78L1466.04 679.588L1460.79 669.71L1437.16 663.856L1335.4 638.947Z" fill="#535461"/>
<path d="M1352.14 578.641C1355.22 578.641 1357.72 577.174 1357.72 575.363C1357.72 573.553 1355.22 572.086 1352.14 572.086C1349.06 572.086 1346.56 573.553 1346.56 575.363C1346.56 577.174 1349.06 578.641 1352.14 578.641Z" fill="#575988"/>
<path d="M1356.73 585.851C1359.82 585.851 1362.31 584.384 1362.31 582.574C1362.31 580.764 1359.82 579.296 1356.73 579.296C1353.65 579.296 1351.15 580.764 1351.15 582.574C1351.15 584.384 1353.65 585.851 1356.73 585.851Z" fill="#FA595F"/>
<path d="M1340.98 583.885C1344.06 583.885 1346.56 582.418 1346.56 580.608C1346.56 578.797 1344.06 577.33 1340.98 577.33C1337.9 577.33 1335.4 578.797 1335.4 580.608C1335.4 582.418 1337.9 583.885 1340.98 583.885Z" fill="#FFD037"/>
<path d="M1411.88 590.44C1414.96 590.44 1417.46 588.972 1417.46 587.162C1417.46 585.352 1414.96 583.885 1411.88 583.885C1408.8 583.885 1406.3 585.352 1406.3 587.162C1406.3 588.972 1408.8 590.44 1411.88 590.44Z" fill="#575988"/>
<path d="M1400.72 596.34C1403.8 596.34 1406.3 594.872 1406.3 593.062C1406.3 591.252 1403.8 589.785 1400.72 589.785C1397.64 589.785 1395.14 591.252 1395.14 593.062C1395.14 594.872 1397.64 596.34 1400.72 596.34Z" fill="#FFD037"/>
<path d="M1379.71 587.162C1384.24 587.162 1387.92 585.402 1387.92 583.229C1387.92 581.057 1384.24 579.296 1379.71 579.296C1375.18 579.296 1371.5 581.057 1371.5 583.229C1371.5 585.402 1375.18 587.162 1379.71 587.162Z" fill="#A8A8A8"/>
<path d="M1417.79 597.651C1420.87 597.651 1423.37 596.183 1423.37 594.373C1423.37 592.563 1420.87 591.096 1417.79 591.096C1414.71 591.096 1412.21 592.563 1412.21 594.373C1412.21 596.183 1414.71 597.651 1417.79 597.651Z" fill="#FA595F"/>
<path d="M1382.01 582.581H1378.07L1374.68 569.523C1374.54 568.974 1374.53 568.399 1374.64 567.843C1374.76 567.288 1375 566.765 1375.34 566.317C1375.69 565.868 1376.14 565.505 1376.65 565.255C1377.16 565.005 1377.72 564.875 1378.29 564.875C1379.27 564.875 1380.22 565.267 1380.92 565.964C1381.62 566.661 1382.01 567.606 1382.01 568.592V582.581Z" fill="#A8A8A8"/>
<path d="M1438.8 597.651C1443.33 597.651 1447 595.89 1447 593.718C1447 591.546 1443.33 589.785 1438.8 589.785C1434.26 589.785 1430.59 591.546 1430.59 593.718C1430.59 595.89 1434.26 597.651 1438.8 597.651Z" fill="#A8A8A8"/>
<path d="M1441.09 593.068H1437.16L1433.77 580.011C1433.63 579.461 1433.61 578.887 1433.73 578.331C1433.84 577.775 1434.08 577.253 1434.43 576.804C1434.78 576.356 1435.22 575.993 1435.73 575.743C1436.24 575.493 1436.8 575.363 1437.37 575.363C1438.36 575.363 1439.31 575.755 1440 576.452C1440.7 577.149 1441.09 578.094 1441.09 579.08V593.068Z" fill="#A8A8A8"/>
<path d="M1376.1 317.751L1511.34 306.607L1508.06 355.77L1372.82 362.325L1376.1 317.751Z" fill="#535461"/>
<path d="M1510.68 306.607L1573.05 311.196L1564.52 728.095L1469 789.385L1462.43 784.796L1462.1 675.655L1441.09 652.057V619.282L1477.86 587.162L1540.23 448.851L1531.36 369.863H1535.96L1506.75 359.703L1510.68 306.607Z" fill="#D6D6E3"/>
<path d="M1516.59 307.263L1579.62 311.196L1571.08 728.096L1468.67 789.057V675.655L1447.66 652.057V619.282L1484.42 587.163L1546.79 448.852L1535.63 369.536L1513.31 359.703L1516.59 307.263Z" fill="#535461"/>
<path d="M1405.72 559.828C1396.52 578.837 1373.9 573.908 1373.9 573.908C1372.73 572.827 1365.42 571.017 1359.87 569.765C1356.31 568.959 1353.48 568.395 1353.48 568.395L1361.25 557.586L1367.07 558.779L1375.76 560.562C1375.76 560.562 1414.94 540.825 1405.72 559.828Z" fill="url(#paint1_linear)"/>
<g opacity="0.08">
<path opacity="0.08" d="M1405.72 559.828C1396.52 578.837 1373.9 573.908 1373.9 573.908C1372.73 572.827 1365.42 571.017 1359.87 569.765C1356.31 568.959 1353.48 568.395 1353.48 568.395L1361.25 557.586L1367.07 558.779L1375.76 560.562C1375.76 560.562 1414.94 540.825 1405.72 559.828Z" fill="url(#paint2_linear)"/>
</g>
<g opacity="0.1">
<path opacity="0.1" d="M1367.08 558.779L1359.86 569.772C1356.3 568.966 1353.47 568.402 1353.47 568.402L1361.24 557.593L1367.08 558.779Z" fill="url(#paint3_linear)"/>
</g>
<path d="M1286.34 519.489C1286.34 519.489 1320.2 572.316 1356.45 572.191L1366.3 557.114C1366.3 557.114 1333.12 533.451 1328.71 521.114C1327.08 516.526 1323.72 510.239 1320.13 504.071C1309.12 485.173 1279.43 497.516 1285.96 518.282C1286.08 518.693 1286.21 519.095 1286.34 519.489Z" fill="url(#paint4_linear)"/>
<g opacity="0.05">
<path opacity="0.05" d="M1286.34 519.489C1286.34 519.489 1320.2 572.316 1356.45 572.191L1366.3 557.114C1366.3 557.114 1333.12 533.451 1328.71 521.114C1327.08 516.526 1323.72 510.239 1320.13 504.071C1309.12 485.173 1279.43 497.516 1285.96 518.282C1286.08 518.693 1286.21 519.095 1286.34 519.489Z" fill="url(#paint5_linear)"/>
</g>
<path d="M1264.3 826.546L1265.89 844.9C1265.89 844.9 1317.9 836.273 1317.44 819.027C1316.99 801.781 1264.3 826.546 1264.3 826.546Z" fill="url(#paint6_linear)"/>
<g opacity="0.1">
<path opacity="0.1" d="M1264.3 826.546L1265.89 844.9C1265.89 844.9 1317.9 836.273 1317.44 819.027C1316.99 801.781 1264.3 826.546 1264.3 826.546Z" fill="url(#paint7_linear)"/>
</g>
<path d="M1325.16 832.294L1324.26 848.216C1324.26 848.216 1396.47 842.907 1393.74 827.896C1391.01 812.885 1352.87 821.236 1352.87 821.236L1325.16 832.294Z" fill="url(#paint8_linear)"/>
<path d="M1326.07 676.612C1326.07 676.612 1321.8 688.411 1316.35 701.928C1311.14 714.868 1304.85 729.413 1300.18 736.761C1290.64 751.799 1289.28 798.241 1289.28 798.241C1287.47 805.76 1296.55 820.358 1296.55 820.358C1278.39 839.367 1261.58 828.322 1261.58 828.322C1264.76 822.573 1259.31 806.205 1259.31 806.205C1259.31 806.205 1266.58 730.573 1271.13 727.034C1275.68 723.494 1279.3 705.802 1279.3 705.802L1275.24 645.679L1274.3 631.914L1313.36 614.667L1316.18 628.381L1318.97 641.956L1326.07 676.612Z" fill="url(#paint9_linear)"/>
<g opacity="0.1">
<path opacity="0.1" d="M1326.07 676.612C1326.07 676.612 1321.8 688.411 1316.35 701.928C1311.14 714.868 1304.85 729.413 1300.18 736.761C1290.64 751.799 1289.28 798.241 1289.28 798.241C1287.47 805.76 1296.55 820.358 1296.55 820.358C1278.39 839.367 1261.58 828.322 1261.58 828.322C1264.76 822.573 1259.31 806.205 1259.31 806.205C1259.31 806.205 1266.58 730.573 1271.13 727.034C1275.68 723.494 1279.3 705.802 1279.3 705.802L1275.24 645.679L1274.3 631.914L1313.36 614.667L1316.18 628.381L1318.97 641.956L1326.07 676.612Z" fill="url(#paint10_linear)"/>
</g>
<path d="M1360.13 823.012C1351.95 837.165 1323.36 835.395 1323.36 835.395V793.816C1323.36 793.816 1315.19 747.374 1319.73 736.788C1324.28 726.201 1317.91 706.713 1317.91 706.713L1316.35 701.934L1297.83 644.906L1292.46 628.374H1353.77C1353.77 628.374 1353.77 631.206 1353.77 635.807C1353.85 653.506 1354.22 697.366 1356.02 707.546C1358.3 720.374 1351.93 728.777 1351.93 728.777C1351.93 728.777 1355.57 780.968 1352.39 797.33C1349.21 813.691 1360.13 823.012 1360.13 823.012Z" fill="url(#paint11_linear)"/>
<path d="M1309.72 434.234C1309.72 434.234 1300.18 459.884 1281.11 469.172C1262.04 478.461 1312.45 481.115 1312.45 481.115C1312.45 481.115 1320.62 461.654 1339.24 447.94L1309.72 434.234Z" fill="url(#paint12_linear)"/>
<g opacity="0.1">
<path opacity="0.1" d="M1353.79 635.833C1346.19 637.295 1332.74 639.799 1318.96 641.975C1311.74 643.116 1304.44 644.165 1297.83 644.925C1287.67 646.099 1279.17 646.59 1275.23 645.672L1274.3 631.907L1313.35 614.661L1316.17 628.374H1353.77C1353.77 628.374 1353.77 631.232 1353.79 635.833Z" fill="url(#paint13_linear)"/>
</g>
<path d="M1360.13 633.264C1360.13 633.264 1283.38 648.747 1273.84 643.883C1264.31 639.019 1262.03 626.637 1264.76 612.924C1267.49 599.211 1264.76 565.157 1259.76 521.809C1257.25 499.981 1262.79 485.33 1268.92 476.166C1271.61 472.216 1275.23 468.988 1279.47 466.767C1283.71 464.546 1288.43 463.4 1293.21 463.43C1301.51 463.396 1309.58 466.168 1316.1 471.296C1318.02 472.823 1319.96 474.075 1321.54 474.501C1322.79 474.836 1324.66 476.16 1326.79 477.962C1336.26 486.107 1342.21 497.597 1343.38 510.023C1344.17 518.263 1345 528.639 1345.41 539.127C1345.83 548.084 1345.74 557.057 1345.13 566.003C1344.71 572.552 1345.02 579.129 1346.07 585.609C1349.6 609.509 1360.13 633.264 1360.13 633.264Z" fill="url(#paint14_linear)"/>
<g opacity="0.1">
<path opacity="0.1" d="M1346.07 585.642C1318.22 568.717 1303.81 521.363 1303.81 521.363C1303.81 520.95 1303.81 520.544 1303.77 520.144C1303.14 498.427 1335.17 494.245 1340.6 515.319C1342.37 522.182 1343.89 529.144 1344.2 533.955C1344.37 535.726 1344.78 537.465 1345.42 539.127C1345.83 548.084 1345.74 557.057 1345.14 566.003C1344.72 572.563 1345.03 579.151 1346.07 585.642Z" fill="url(#paint15_linear)"/>
</g>
<g opacity="0.1">
<path opacity="0.1" d="M1304.95 449.494C1309.48 456.973 1313.06 464.505 1322.26 465.783C1326.78 460.062 1332.02 454.958 1337.87 450.602L1308.33 436.889C1308.33 436.889 1310.06 441.569 1304.95 449.494Z" fill="url(#paint16_linear)"/>
</g>
<path d="M1327.89 463.417C1344.44 463.417 1357.86 450.348 1357.86 434.227C1357.86 418.106 1344.44 405.038 1327.89 405.038C1311.33 405.038 1297.91 418.106 1297.91 434.227C1297.91 450.348 1311.33 463.417 1327.89 463.417Z" fill="url(#paint17_linear)"/>
<g opacity="0.1">
<path opacity="0.1" d="M1357.51 443.384C1358.75 443.437 1359.98 443.113 1361.03 442.454C1362.47 441.411 1362.93 439.543 1363.26 437.826C1364.04 433.768 1364.65 429.494 1363.26 425.588C1362.36 423.005 1360.63 420.77 1359.43 418.318C1356.73 412.963 1356.25 406.519 1352.41 401.871C1350.02 398.961 1341.59 401.871 1338.08 400.403C1330.51 397.231 1327.23 390.793 1318.99 390.8C1315.97 390.727 1312.96 391.102 1310.05 391.914C1306.37 393.048 1303.11 395.192 1300.08 397.545C1294.83 401.622 1289.68 407.22 1290.15 413.762C1290.45 417.938 1293.01 421.628 1294.51 425.522C1297.03 432.077 1296.57 439.445 1294.75 446.236C1293.98 449.127 1293.09 452.581 1295.15 454.79C1296.46 456.173 1298.54 456.567 1300.4 456.265C1302.25 455.855 1304.03 455.147 1305.65 454.167C1308.6 452.601 1311.6 451.008 1313.99 448.707C1315.57 447.186 1316.84 445.39 1318.35 443.797C1321.29 440.751 1324.62 438.107 1328.26 435.931C1331.17 434.188 1334.17 435.276 1337.22 436.41C1343.93 438.868 1350.14 443.516 1357.51 443.384Z" fill="url(#paint18_linear)"/>
</g>
<path d="M1357.06 442.939C1358.3 442.992 1359.53 442.667 1360.58 442.008C1362.02 440.966 1362.48 439.097 1362.81 437.38C1363.59 433.322 1364.2 429.049 1362.81 425.142C1361.91 422.559 1360.18 420.324 1358.97 417.872C1356.28 412.517 1355.8 406.073 1351.96 401.426C1349.57 398.515 1341.6 401.871 1338.08 400.397C1330.51 397.224 1326.78 390.348 1318.54 390.354C1315.52 390.281 1312.51 390.656 1309.6 391.469C1305.91 392.603 1302.66 394.746 1299.63 397.099C1294.38 401.177 1289.23 406.775 1289.7 413.316C1290 417.492 1292.55 421.183 1294.06 425.076C1296.58 431.631 1296.12 438.999 1294.3 445.79C1293.53 448.681 1292.64 452.135 1294.69 454.344C1296.01 455.728 1298.09 456.121 1299.95 455.819C1301.8 455.409 1303.57 454.701 1305.2 453.722C1308.15 452.155 1311.15 450.562 1313.54 448.261C1315.12 446.741 1316.39 444.944 1317.9 443.352C1320.84 440.306 1324.17 437.661 1327.81 435.486C1330.72 433.742 1333.72 434.83 1336.77 435.964C1343.48 438.422 1349.68 443.07 1357.06 442.939Z" fill="url(#paint19_linear)"/>
<g opacity="0.05">
<path opacity="0.05" d="M1346.07 585.642C1345.03 579.162 1344.72 572.585 1345.14 566.036C1345.74 557.09 1345.83 548.117 1345.42 539.16C1345.01 528.672 1344.18 518.295 1343.39 510.056C1342.21 497.617 1336.25 486.118 1326.76 477.976C1324.65 476.173 1322.77 474.842 1321.51 474.514C1319.92 474.095 1317.99 472.836 1316.07 471.309C1309.62 466.176 1317.82 476.173 1319.92 477.976C1329.41 486.118 1335.38 497.617 1336.55 510.056C1337.34 518.295 1338.17 528.672 1338.58 539.16C1339 548.117 1338.91 557.09 1338.31 566.036C1337.88 572.585 1338.2 579.162 1339.24 585.642C1342.77 609.522 1353.29 633.264 1353.29 633.264C1353.29 633.264 1301.92 643.628 1278.01 644.729C1296.74 646.04 1360.1 633.264 1360.1 633.264C1360.1 633.264 1349.6 609.509 1346.07 585.642Z" fill="url(#paint20_linear)"/>
</g>
<path d="M1408.72 589.922C1394.64 605.844 1374.21 595.232 1374.21 595.232C1373.38 593.881 1366.82 590.243 1361.83 587.595C1358.62 585.897 1356.04 584.613 1356.04 584.613L1366.49 576.209L1371.77 578.87L1379.65 582.843C1379.65 582.843 1422.82 574 1408.72 589.922Z" fill="url(#paint21_linear)"/>
<g opacity="0.1">
<path opacity="0.1" d="M1371.77 578.87L1361.83 587.595C1358.62 585.897 1356.04 584.613 1356.04 584.613L1366.49 576.209L1371.77 578.87Z" fill="url(#paint22_linear)"/>
</g>
<path d="M1304.73 520.039C1304.73 520.039 1322.89 579.749 1357.86 589.037L1371.49 577.094C1371.49 577.094 1346.01 545.669 1345.11 532.631C1344.79 527.813 1343.28 520.832 1341.52 513.995C1336.08 492.928 1304.06 497.103 1304.68 518.82C1304.69 519.222 1304.71 519.628 1304.73 520.039Z" fill="url(#paint23_linear)"/>
<path opacity="0.05" d="M1269.53 578.202C1269.53 578.202 1281.35 568.913 1292.24 575.993C1303.13 583.072 1319.03 582.187 1321.3 582.626" fill="url(#paint24_linear)"/>
<path d="M1402.32 558.858C1393.55 577.396 1372.04 572.624 1372.04 572.624C1370.92 571.568 1363.96 569.805 1358.69 568.586C1355.3 567.799 1352.61 567.275 1352.61 567.275L1360 556.728L1365.54 557.894L1373.81 559.631C1373.81 559.631 1411.08 540.314 1402.32 558.858Z" fill="#F7C4A7"/>
<path opacity="0.08" d="M1402.32 558.858C1393.55 577.396 1372.04 572.624 1372.04 572.624C1370.92 571.568 1363.96 569.805 1358.69 568.586C1355.3 567.799 1352.61 567.275 1352.61 567.275L1360 556.728L1365.54 557.894L1373.81 559.631C1373.81 559.631 1411.08 540.314 1402.32 558.858Z" fill="black"/>
<path opacity="0.1" d="M1365.54 557.829L1358.69 568.553C1355.3 567.766 1352.61 567.242 1352.61 567.242L1360 556.695L1365.54 557.829Z" fill="black"/>
<path d="M1288.71 519.495C1288.71 519.495 1320.93 571.044 1355.43 570.913L1364.81 556.229C1364.81 556.229 1333.24 533.143 1329.04 521.101C1327.49 516.657 1324.29 510.495 1320.88 504.491C1310.38 486.058 1282.15 498.099 1288.35 518.361C1288.47 518.732 1288.59 519.11 1288.71 519.495Z" fill="#575988"/>
<path opacity="0.05" d="M1288.71 519.495C1288.71 519.495 1320.93 571.044 1355.43 570.913L1364.81 556.229C1364.81 556.229 1333.24 533.143 1329.04 521.101C1327.49 516.657 1324.29 510.495 1320.88 504.491C1310.38 486.058 1282.15 498.099 1288.35 518.361C1288.47 518.732 1288.59 519.11 1288.71 519.495Z" fill="black"/>
<path d="M1267.74 819.093L1269.25 837.001C1269.25 837.001 1318.74 828.584 1318.3 811.757C1317.87 794.931 1267.74 819.093 1267.74 819.093Z" fill="#535461"/>
<path opacity="0.1" d="M1267.74 819.093L1269.25 837.001C1269.25 837.001 1318.74 828.584 1318.3 811.757C1317.87 794.931 1267.74 819.093 1267.74 819.093Z" fill="black"/>
<path d="M1325.65 824.703L1324.79 840.245C1324.79 840.245 1393.51 835.067 1390.92 820.397C1388.32 805.727 1352.02 813.92 1352.02 813.92L1325.65 824.703Z" fill="#535461"/>
<path d="M1326.51 672.798C1326.51 672.798 1322.45 684.295 1317.26 697.497C1312.3 710.122 1306.31 724.314 1301.88 731.485C1292.83 746.161 1291.52 791.47 1291.52 791.47C1289.79 798.805 1298.43 813.049 1298.43 813.049C1281.14 831.606 1265.15 820.817 1265.15 820.817C1268.18 815.205 1262.99 799.237 1262.99 799.237C1262.99 799.237 1269.9 725.441 1274.23 721.993C1278.56 718.545 1282 701.279 1282 701.279L1278.14 642.618L1277.25 629.213L1314.42 612.38L1317.12 625.759L1319.75 639.006L1326.51 672.798Z" fill="#6A5C99"/>
<path opacity="0.1" d="M1326.51 672.798C1326.51 672.798 1322.45 684.295 1317.26 697.497C1312.3 710.122 1306.31 724.314 1301.88 731.485C1292.83 746.161 1291.52 791.47 1291.52 791.47C1289.79 798.805 1298.43 813.049 1298.43 813.049C1281.14 831.606 1265.15 820.817 1265.15 820.817C1268.18 815.205 1262.99 799.237 1262.99 799.237C1262.99 799.237 1269.9 725.441 1274.23 721.993C1278.56 718.545 1282 701.279 1282 701.279L1278.14 642.618L1277.25 629.213L1314.42 612.38L1317.12 625.759L1319.75 639.006L1326.51 672.798Z" fill="black"/>
<path d="M1358.93 815.638C1351.15 829.449 1323.92 827.719 1323.92 827.719V787.15C1323.92 787.15 1316.14 741.835 1320.46 731.478C1324.78 721.121 1318.74 702.131 1318.74 702.131L1317.27 697.49L1299.64 641.877L1294.53 625.752H1352.88C1352.88 625.752 1352.88 628.512 1352.88 633.008C1352.95 650.268 1353.31 693.072 1355.03 703.003C1357.19 715.516 1351.13 723.717 1351.13 723.717C1351.13 723.717 1354.59 774.636 1351.57 790.578C1348.54 806.52 1358.93 815.638 1358.93 815.638Z" fill="#6A5C99"/>
<path d="M1310.96 436.312C1310.96 436.312 1301.88 461.339 1283.72 470.398C1265.57 479.457 1313.55 482.052 1313.55 482.052C1313.55 482.052 1321.33 463.043 1339.05 449.684L1310.96 436.312Z" fill="#F7C4A7"/>
<path opacity="0.1" d="M1352.9 633.015C1345.66 634.418 1332.88 636.882 1319.75 639.006C1312.88 640.12 1305.93 641.143 1299.64 641.884C1289.97 643.024 1281.87 643.509 1278.12 642.611L1277.24 629.206L1314.41 612.373L1317.12 625.758H1352.91C1352.91 625.758 1352.88 628.518 1352.9 633.015Z" fill="black"/>
<path d="M1358.93 630.485C1358.93 630.485 1285.89 645.561 1276.82 640.841C1267.74 636.122 1265.58 624.008 1268.17 610.636C1270.76 597.264 1268.17 564.03 1263.42 521.737C1261.02 500.439 1266.3 486.149 1272.13 477.202C1274.64 473.371 1278.07 470.226 1282.1 468.051C1286.14 465.877 1290.65 464.741 1295.24 464.747C1303.17 464.719 1310.86 467.426 1317.02 472.41C1318.85 473.898 1320.69 475.124 1322.19 475.537C1323.38 475.858 1325.17 477.156 1327.17 478.913C1336.25 486.95 1341.91 498.146 1343 510.213C1343.75 518.249 1344.54 528.377 1344.93 538.616C1345.33 547.354 1345.24 556.107 1344.67 564.836C1344.27 571.225 1344.57 577.639 1345.56 583.964C1348.91 607.339 1358.93 630.485 1358.93 630.485Z" fill="#575988"/>
<path opacity="0.1" d="M1345.55 584.043C1319.04 567.53 1305.34 521.324 1305.34 521.324C1305.34 520.924 1305.34 520.524 1305.29 520.138C1304.7 498.952 1335.17 494.868 1340.35 515.431C1342.03 522.13 1343.47 528.915 1343.77 533.615C1343.93 535.34 1344.32 537.037 1344.92 538.662C1345.32 547.4 1345.24 556.154 1344.67 564.882C1344.26 571.282 1344.56 577.707 1345.55 584.043Z" fill="black"/>
<path opacity="0.1" d="M1306.42 451.198C1310.73 458.494 1314.14 465.849 1322.9 467.088C1327.18 461.521 1332.17 456.54 1337.75 452.273L1309.66 438.895C1309.66 438.895 1311.28 443.47 1306.42 451.198Z" fill="black"/>
<path d="M1328.25 464.793C1344 464.793 1356.77 452.042 1356.77 436.312C1356.77 420.582 1344 407.83 1328.25 407.83C1312.49 407.83 1299.72 420.582 1299.72 436.312C1299.72 452.042 1312.49 464.793 1328.25 464.793Z" fill="#F7C4A7"/>
<path opacity="0.1" d="M1356.44 445.24C1357.63 445.287 1358.8 444.967 1359.79 444.322C1361.16 443.306 1361.6 441.477 1361.91 439.806C1362.65 435.873 1363.22 431.677 1361.91 427.862C1361.05 425.339 1359.43 423.162 1358.26 420.77C1355.69 415.526 1355.24 409.259 1351.59 404.723C1349.3 401.885 1341.29 404.723 1337.94 403.288C1330.72 400.194 1327.62 393.914 1319.78 393.92C1316.9 393.847 1314.02 394.214 1311.24 395.009C1307.74 396.11 1304.64 398.22 1301.76 400.502C1296.75 404.481 1291.86 409.941 1292.31 416.325C1292.6 420.403 1295.03 423.969 1296.46 427.797C1298.86 434.208 1298.43 441.385 1296.69 448.006C1295.95 450.825 1295.11 454.194 1297.06 456.357C1298.28 457.701 1300.29 458.094 1302.09 457.793C1303.86 457.394 1305.56 456.703 1307.11 455.747C1309.92 454.22 1312.77 452.667 1315.04 450.425C1316.54 448.937 1317.76 447.187 1319.19 445.633C1321.98 442.669 1325.15 440.088 1328.62 437.957C1331.39 436.259 1334.24 437.302 1337.16 438.422C1343.52 440.835 1349.42 445.371 1356.44 445.24Z" fill="black"/>
<path d="M1356.01 444.807C1357.2 444.859 1358.36 444.543 1359.36 443.903C1360.73 442.887 1361.17 441.058 1361.47 439.386C1362.22 435.453 1362.79 431.258 1361.47 427.443C1360.62 424.919 1359 422.743 1357.82 420.35C1355.26 415.106 1354.8 408.84 1351.15 404.304C1348.87 401.465 1341.31 404.743 1337.94 403.301C1330.72 400.207 1327.18 393.468 1319.35 393.468C1316.46 393.394 1313.58 393.761 1310.81 394.556C1307.31 395.658 1304.21 397.768 1301.33 400.05C1296.32 404.028 1291.43 409.489 1291.88 415.873C1292.17 419.951 1294.6 423.516 1296.03 427.345C1298.43 433.755 1298 440.933 1296.26 447.554C1295.52 450.372 1294.67 453.742 1296.63 455.905C1297.85 457.249 1299.86 457.642 1301.65 457.34C1303.43 456.941 1305.13 456.25 1306.68 455.295C1309.49 453.768 1312.33 452.214 1314.61 449.973C1316.11 448.485 1317.32 446.734 1318.76 445.181C1321.58 442.22 1324.78 439.647 1328.28 437.531C1331.05 435.833 1333.89 436.876 1336.82 437.997C1343.09 440.389 1348.99 444.938 1356.01 444.807Z" fill="#632652"/>
<path opacity="0.05" d="M1345.55 584.042C1344.57 577.723 1344.28 571.316 1344.69 564.935C1345.26 556.206 1345.35 547.453 1344.95 538.714C1344.56 528.476 1343.77 518.355 1343.02 510.312C1341.93 498.245 1336.27 487.048 1327.19 479.011C1325.19 477.248 1323.4 475.957 1322.21 475.635C1320.71 475.223 1318.87 473.997 1317.04 472.509C1310.9 467.501 1318.7 477.255 1320.71 479.011C1329.79 487.048 1335.45 498.245 1336.54 510.312C1337.29 518.348 1338.08 528.476 1338.47 538.714C1338.87 547.453 1338.78 556.206 1338.21 564.935C1337.81 571.324 1338.11 577.737 1339.1 584.062C1342.46 607.359 1352.48 630.524 1352.48 630.524C1352.48 630.524 1303.58 640.632 1280.83 641.714C1298.67 643.025 1358.96 630.524 1358.96 630.524C1358.96 630.524 1348.91 607.339 1345.55 584.042Z" fill="black"/>
<path d="M1405.18 588.218C1391.78 603.753 1372.35 593.396 1372.35 593.396C1371.56 592.085 1365.33 588.526 1360.53 585.95C1357.48 584.291 1355.03 583.039 1355.03 583.039L1364.97 574.839L1370 577.461L1377.52 581.322C1377.52 581.322 1418.58 572.682 1405.18 588.218Z" fill="#F7C4A7"/>
<path opacity="0.1" d="M1370.02 577.435L1360.55 585.956C1357.5 584.298 1355.05 583.046 1355.05 583.046L1364.99 574.846L1370.02 577.435Z" fill="black"/>
<path d="M1306.2 520.033C1306.2 520.033 1323.49 578.294 1356.75 587.353L1369.72 575.698C1369.72 575.698 1345.43 545.04 1344.62 532.317C1344.31 527.617 1342.88 520.826 1341.19 514.133C1336.02 493.576 1305.55 497.654 1306.14 518.839C1306.17 519.233 1306.19 519.63 1306.2 520.033Z" fill="#575988"/>
<path opacity="0.05" d="M1272.71 576.779C1272.71 576.779 1283.95 567.714 1294.32 574.623C1304.69 581.532 1319.82 580.667 1321.98 581.099" fill="black"/>
</g>
</g>
<defs>
<linearGradient id="paint0_linear" x1="1441.09" y1="789.392" x2="1441.09" y2="304.32" gradientUnits="userSpaceOnUse">
<stop stop-color="#808080" stop-opacity="0.25"/>
<stop offset="0.54" stop-color="#808080" stop-opacity="0.12"/>
<stop offset="1" stop-color="#808080" stop-opacity="0.1"/>
</linearGradient>
<linearGradient id="paint1_linear" x1="29418.8" y1="10876.2" x2="29418.8" y2="10075.1" gradientUnits="userSpaceOnUse">
<stop stop-color="#808080" stop-opacity="0.25"/>
<stop offset="0.54" stop-color="#808080" stop-opacity="0.12"/>
<stop offset="1" stop-color="#808080" stop-opacity="0.1"/>
</linearGradient>
<linearGradient id="paint2_linear" x1="29418.8" y1="10876.2" x2="29418.8" y2="10075.1" gradientUnits="userSpaceOnUse">
<stop stop-color="#808080" stop-opacity="0.25"/>
<stop offset="0.54" stop-color="#808080" stop-opacity="0.12"/>
<stop offset="1" stop-color="#808080" stop-opacity="0.1"/>
</linearGradient>
<linearGradient id="paint3_linear" x1="8059.49" y1="5957.51" x2="8059.49" y2="5731.22" gradientUnits="userSpaceOnUse">
<stop stop-color="#808080" stop-opacity="0.25"/>
<stop offset="0.54" stop-color="#808080" stop-opacity="0.12"/>
<stop offset="1" stop-color="#808080" stop-opacity="0.1"/>
</linearGradient>
<linearGradient id="paint4_linear" x1="37046.3" y1="35124.5" x2="37046.3" y2="25976.4" gradientUnits="userSpaceOnUse">
<stop stop-color="#808080" stop-opacity="0.25"/>
<stop offset="0.54" stop-color="#808080" stop-opacity="0.12"/>
<stop offset="1" stop-color="#808080" stop-opacity="0.1"/>
</linearGradient>
<linearGradient id="paint5_linear" x1="37046.3" y1="35124.5" x2="37046.3" y2="25976.4" gradientUnits="userSpaceOnUse">
<stop stop-color="#808080" stop-opacity="0.25"/>
<stop offset="0.54" stop-color="#808080" stop-opacity="0.12"/>
<stop offset="1" stop-color="#808080" stop-opacity="0.1"/>
</linearGradient>
<linearGradient id="paint6_linear" x1="21830.8" y1="28414.1" x2="21830.8" y2="26853.9" gradientUnits="userSpaceOnUse">
<stop stop-color="#808080" stop-opacity="0.25"/>
<stop offset="0.54" stop-color="#808080" stop-opacity="0.12"/>
<stop offset="1" stop-color="#808080" stop-opacity="0.1"/>
</linearGradient>
<linearGradient id="paint7_linear" x1="21830.8" y1="28414.1" x2="21830.8" y2="26853.9" gradientUnits="userSpaceOnUse">
<stop stop-color="#808080" stop-opacity="0.25"/>
<stop offset="0.54" stop-color="#808080" stop-opacity="0.12"/>
<stop offset="1" stop-color="#808080" stop-opacity="0.1"/>
</linearGradient>
<linearGradient id="paint8_linear" x1="35467.2" y1="26253.6" x2="35467.2" y2="24943.1" gradientUnits="userSpaceOnUse">
<stop stop-color="#808080" stop-opacity="0.25"/>
<stop offset="0.54" stop-color="#808080" stop-opacity="0.12"/>
<stop offset="1" stop-color="#808080" stop-opacity="0.1"/>
</linearGradient>
<linearGradient id="paint9_linear" x1="27281.7" y1="183346" x2="27281.7" y2="111618" gradientUnits="userSpaceOnUse">
<stop stop-color="#808080" stop-opacity="0.25"/>
<stop offset="0.54" stop-color="#808080" stop-opacity="0.12"/>
<stop offset="1" stop-color="#808080" stop-opacity="0.1"/>
</linearGradient>
<linearGradient id="paint10_linear" x1="27281.7" y1="183346" x2="27281.7" y2="111618" gradientUnits="userSpaceOnUse">
<stop stop-color="#808080" stop-opacity="0.25"/>
<stop offset="0.54" stop-color="#808080" stop-opacity="0.12"/>
<stop offset="1" stop-color="#808080" stop-opacity="0.1"/>
</linearGradient>
<linearGradient id="paint11_linear" x1="31131.9" y1="176389" x2="31131.9" y2="110971" gradientUnits="userSpaceOnUse">
<stop stop-color="#808080" stop-opacity="0.25"/>
<stop offset="0.54" stop-color="#808080" stop-opacity="0.12"/>
<stop offset="1" stop-color="#808080" stop-opacity="0.1"/>
</linearGradient>
<linearGradient id="paint12_linear" x1="27071.9" y1="14879.8" x2="27071.9" y2="11526.9" gradientUnits="userSpaceOnUse">
<stop stop-color="#808080" stop-opacity="0.25"/>
<stop offset="0.54" stop-color="#808080" stop-opacity="0.12"/>
<stop offset="1" stop-color="#808080" stop-opacity="0.1"/>
</linearGradient>
<linearGradient id="paint13_linear" x1="34846.4" y1="18245.3" x2="34846.4" y2="16733.9" gradientUnits="userSpaceOnUse">
<stop stop-color="#808080" stop-opacity="0.25"/>
<stop offset="0.54" stop-color="#808080" stop-opacity="0.12"/>
<stop offset="1" stop-color="#808080" stop-opacity="0.1"/>
</linearGradient>
<linearGradient id="paint14_linear" x1="43229.5" y1="101663" x2="43229.5" y2="51462.1" gradientUnits="userSpaceOnUse">
<stop stop-color="#808080" stop-opacity="0.25"/>
<stop offset="0.54" stop-color="#808080" stop-opacity="0.12"/>
<stop offset="1" stop-color="#808080" stop-opacity="0.1"/>
</linearGradient>
<linearGradient id="paint15_linear" x1="19874.6" y1="39841.4" x2="19874.6" y2="29043.8" gradientUnits="userSpaceOnUse">
<stop stop-color="#808080" stop-opacity="0.25"/>
<stop offset="0.54" stop-color="#808080" stop-opacity="0.12"/>
<stop offset="1" stop-color="#808080" stop-opacity="0.1"/>
</linearGradient>
<linearGradient id="paint16_linear" x1="15578.7" y1="8664.03" x2="15578.7" y2="7390.65" gradientUnits="userSpaceOnUse">
<stop stop-color="#808080" stop-opacity="0.25"/>
<stop offset="0.54" stop-color="#808080" stop-opacity="0.12"/>
<stop offset="1" stop-color="#808080" stop-opacity="0.1"/>
</linearGradient>
<linearGradient id="paint17_linear" x1="25213.4" y1="14959.5" x2="25213.4" y2="9759.69" gradientUnits="userSpaceOnUse">
<stop stop-color="#808080" stop-opacity="0.25"/>
<stop offset="0.54" stop-color="#808080" stop-opacity="0.12"/>
<stop offset="1" stop-color="#808080" stop-opacity="0.1"/>
</linearGradient>
<linearGradient id="paint18_linear" x1="34001.9" y1="18117.5" x2="34001.9" y2="11559.9" gradientUnits="userSpaceOnUse">
<stop stop-color="#808080" stop-opacity="0.25"/>
<stop offset="0.54" stop-color="#808080" stop-opacity="0.12"/>
<stop offset="1" stop-color="#808080" stop-opacity="0.1"/>
</linearGradient>
<linearGradient id="paint19_linear" x1="33949.7" y1="18073.1" x2="33949.7" y2="11515.5" gradientUnits="userSpaceOnUse">
<stop stop-color="#808080" stop-opacity="0.25"/>
<stop offset="0.54" stop-color="#808080" stop-opacity="0.12"/>
<stop offset="1" stop-color="#808080" stop-opacity="0.1"/>
</linearGradient>
<linearGradient id="paint20_linear" x1="36578.5" y1="98079.2" x2="36578.5" y2="51368.9" gradientUnits="userSpaceOnUse">
<stop stop-color="#808080" stop-opacity="0.25"/>
<stop offset="0.54" stop-color="#808080" stop-opacity="0.12"/>
<stop offset="1" stop-color="#808080" stop-opacity="0.1"/>
</linearGradient>
<linearGradient id="paint21_linear" x1="30694.7" y1="11538.8" x2="30694.7" y2="10767.5" gradientUnits="userSpaceOnUse">
<stop stop-color="#808080" stop-opacity="0.25"/>
<stop offset="0.54" stop-color="#808080" stop-opacity="0.12"/>
<stop offset="1" stop-color="#808080" stop-opacity="0.1"/>
</linearGradient>
<linearGradient id="paint22_linear" x1="9193.76" y1="5934.16" x2="9193.76" y2="5736.38" gradientUnits="userSpaceOnUse">
<stop stop-color="#808080" stop-opacity="0.25"/>
<stop offset="0.54" stop-color="#808080" stop-opacity="0.12"/>
<stop offset="1" stop-color="#808080" stop-opacity="0.1"/>
</linearGradient>
<linearGradient id="paint23_linear" x1="31967.5" y1="42505.9" x2="31967.5" y2="30463.2" gradientUnits="userSpaceOnUse">
<stop stop-color="#808080" stop-opacity="0.25"/>
<stop offset="0.54" stop-color="#808080" stop-opacity="0.12"/>
<stop offset="1" stop-color="#808080" stop-opacity="0.1"/>
</linearGradient>
<linearGradient id="paint24_linear" x1="21664.6" y1="4876.44" x2="21664.6" y2="4744.74" gradientUnits="userSpaceOnUse">
<stop stop-color="#808080" stop-opacity="0.25"/>
<stop offset="0.54" stop-color="#808080" stop-opacity="0.12"/>
<stop offset="1" stop-color="#808080" stop-opacity="0.1"/>
</linearGradient>
<clipPath id="clip0">
<rect width="1571" height="1147" fill="white"/>
</clipPath>
<clipPath id="clip1">
<rect width="560" height="548" fill="white" transform="translate(1066 300)"/>
</clipPath>
</defs>
</svg>
