<svg width="72" height="72" viewBox="0 0 72 72" fill="none" xmlns="http://www.w3.org/2000/svg">
<path d="M36.0002 64.7999C51.906 64.7999 64.8002 51.9058 64.8002 36C64.8002 20.0941 51.906 7.19995 36.0002 7.19995C20.0944 7.19995 7.2002 20.0941 7.2002 36C7.2002 51.9058 20.0944 64.7999 36.0002 64.7999Z" fill="#333333"/>
<path d="M41.7599 33.5519C41.4719 33.4079 41.1839 33.2639 40.8239 33.1199C43.6319 31.2479 45.3599 27.8639 44.7119 24.1199C44.0639 20.3039 40.8239 17.3519 37.0079 16.9199C31.6079 16.3439 27.0719 20.5199 27.0719 25.7759C27.0719 28.8719 28.6559 31.6079 31.1039 33.1919C30.8159 33.3359 30.4559 33.4799 30.1679 33.6239C26.7119 35.6399 24.3359 39.3839 24.3359 43.6319V51.1919C24.3359 53.4239 26.1359 55.2239 28.3679 55.2239H43.5599C45.7919 55.2239 47.5919 53.4239 47.5919 51.1919V43.6319C47.5919 39.3119 45.2159 35.5679 41.7599 33.5519Z" fill="#F5E6C8"/>
</svg>
