<svg width="80" height="80" viewBox="0 0 80 80" fill="none" xmlns="http://www.w3.org/2000/svg">
<path d="M62.7196 71.1998H17.2796C13.5996 71.1998 10.5596 68.2398 10.5596 64.4798V15.5198C10.5596 11.8398 13.5196 8.7998 17.2796 8.7998H62.7196C66.3996 8.7998 69.4396 11.7598 69.4396 15.5198V64.5598C69.4396 68.2398 66.3996 71.1998 62.7196 71.1998Z" fill="#88304E" stroke="#333333" stroke-width="1.645" stroke-miterlimit="10" stroke-linecap="round"/>
<path d="M23.4395 8.7998H56.4795V32.0798H23.4395V8.7998Z" fill="#F5E6C8" stroke="#333333" stroke-width="1.645" stroke-miterlimit="10" stroke-linecap="round"/>
<path d="M42.6396 15.5996H48.5597V25.3596H42.6396V15.5996Z" fill="#333333" stroke="#333333" stroke-width="1.645" stroke-miterlimit="10" stroke-linecap="round"/>
<path d="M39.9991 61.0397C45.4778 61.0397 49.9191 56.5984 49.9191 51.1197C49.9191 45.641 45.4778 41.1997 39.9991 41.1997C34.5204 41.1997 30.0791 45.641 30.0791 51.1197C30.0791 56.5984 34.5204 61.0397 39.9991 61.0397Z" fill="#F5E6C8" stroke="#333333" stroke-width="1.645" stroke-miterlimit="10" stroke-linecap="round"/>
</svg>
